<svg width="1001" height="496" viewBox="0 0 1001 496" fill="none" xmlns="http://www.w3.org/2000/svg">
<g opacity="0.29827">
<path d="M1008.08 163.448L443.182 -356.858V-747.19L28.1096 -770C24.9043 -762.456 4.36709 -740.714 7.57176 -728.596C11.43 -714.102 30.8387 -718.735 36.4776 -709.409C43.0661 -698.42 31.7291 -653.749 28.3457 -640.86C21.8759 -616.445 7.09676 -596.665 2.82235 -572.25C-4.35982 -531.263 10.1824 -534.53 37.7242 -508.927C84.141 -465.742 46.9244 -420.952 58.6176 -370.223C68.1146 -328.878 109.605 -307.554 124.8 -266.211C136.553 -234.37 152.697 -226.233 177.746 -202.947C177.153 -217.084 164.51 -258.785 188.253 -255.102C211.817 -251.478 202.736 -216.669 207.247 -202.115C211.045 -189.997 237.933 -165.761 215.616 -154.593C208.196 -150.91 187.066 -165.582 178.577 -169.503C184.572 -150.791 180.774 -131.367 190.271 -113.487C201.608 -92.162 213.835 -100.359 228.853 -88.7754C244.344 -76.8355 242.683 -63.1137 235.797 -45.0554C228.615 -26.2247 221.196 -29.1352 232.592 -6.44342C240.843 9.95119 254.85 30.7421 266.9 43.2164C273.904 50.4634 281.502 52.1267 288.506 61.3932C294.323 69.1155 292.067 79.2142 299.012 86.1638C310.883 98.1037 331.006 98.282 340.384 113.904C350.831 131.309 338.96 144.437 369.706 142.833C371.309 177.643 377.897 209.185 377.541 243.994C394.695 250.825 422.414 242.687 440.399 239.063C458.266 263.18 481.355 246.429 501.774 259.558C510.678 265.26 508.837 279.517 514.239 284.506C525.339 294.723 533.529 288.308 547.301 291.872C557.51 294.486 565.404 301.97 575.138 304.703C584.338 307.257 599.475 301.258 606.301 309.396C614.492 319.138 600.78 336.958 613.127 344.799C623.395 351.333 638.115 335.77 648.088 338.027C659.721 340.7 693.079 371.174 701.271 381.212C710.59 392.677 719.969 414.062 725.25 428.793C733.501 451.841 732.373 463.127 749.408 479.998C760.27 490.75 749.942 491.522 767.63 494.67C779.204 496.749 794.518 488.374 806.212 487.067C830.549 484.394 855.122 489.027 879.102 484.453C901.421 480.176 922.729 473.166 945.64 469.899C965.465 467.048 1000.37 469.246 1017.94 459.801C1036.99 449.643 1038.71 426.654 1011.17 430.932C1008.97 416.26 1018.77 396.003 1007.85 385.847C1023.04 365.056 1028.56 350.384 1030.93 324.959C1032 313.792 1032.48 301.436 1038 292.05C1043.4 282.783 1058.59 277.259 1061.56 269.299C1066.13 256.943 1058.83 251.419 1053.25 244.528C1049.69 240.073 1039.54 242.212 1036.63 238.291C1031.23 231.103 1036.57 223.678 1033.6 216.431C1024.94 195.462 1014.61 187.205 1008.08 163.444C1008.26 167.424 1008.44 171.463 1008.2 175.384" stroke="white" stroke-width="2" stroke-linecap="round" stroke-linejoin="round"/>
</g>
<path d="M730.394 90.1347C725.682 126.284 709.214 134.586 692.226 154.098C687.193 159.88 683.633 170.84 684.873 178.473C687.538 194.887 719.945 181.743 712.678 200.191C705.173 219.245 674.905 240.055 673.352 241.631C659.715 255.472 644.52 296.325 642.589 320.617C641.215 337.901 665.637 339.163 674.411 335.868C731.871 314.287 709.457 312.256 765.472 316.848C769.76 317.199 774.12 318.02 777.193 321.89C780.359 325.875 776.829 337.339 773.649 343.16C763.111 362.451 732.884 391.519 730.223 420.187C729.406 428.984 731.701 435.372 731.004 444.097C730.458 450.932 728.06 458.484 726.588 465.677" stroke="white" stroke-width="2"/>
<path fill-rule="evenodd" clip-rule="evenodd" d="M570 319C571.657 319 573 317.657 573 316C573 314.343 571.657 313 570 313C568.343 313 567 314.343 567 316C567 317.657 568.343 319 570 319Z" fill="#4AF6CD"/>
<path fill-rule="evenodd" clip-rule="evenodd" d="M661 363C662.657 363 664 361.657 664 360C664 358.343 662.657 357 661 357C659.343 357 658 358.343 658 360C658 361.657 659.343 363 661 363Z" fill="#4AF6CD"/>
<path fill-rule="evenodd" clip-rule="evenodd" d="M728.5 478C732.09 478 735 475.09 735 471.5C735 467.91 732.09 465 728.5 465C724.91 465 722 467.91 722 471.5C722 475.09 724.91 478 728.5 478Z" fill="#4AF6CD"/>
<path fill-rule="evenodd" clip-rule="evenodd" d="M365 228C366.657 228 368 226.657 368 225C368 223.343 366.657 222 365 222C363.343 222 362 223.343 362 225C362 226.657 363.343 228 365 228Z" fill="#4AF6CD"/>
<path fill-rule="evenodd" clip-rule="evenodd" d="M729.5 91C733.09 91 736 88.0899 736 84.5C736 80.9101 733.09 78 729.5 78C725.91 78 723 80.9101 723 84.5C723 88.0899 725.91 91 729.5 91Z" fill="#4AF6CD"/>
<path d="M483.115 465.976L482.939 467.192H478.667V470.792H482.379V472.008H478.667V475.784H483.243V477H477.147V465.976H483.115ZM491.122 475.032C491.122 475.373 491.181 475.629 491.298 475.8C491.415 475.96 491.591 476.083 491.826 476.168L491.49 477.192C491.053 477.139 490.701 477.016 490.434 476.824C490.167 476.632 489.97 476.333 489.842 475.928C489.277 476.771 488.439 477.192 487.33 477.192C486.498 477.192 485.842 476.957 485.362 476.488C484.882 476.019 484.642 475.405 484.642 474.648C484.642 473.752 484.962 473.064 485.602 472.584C486.253 472.104 487.17 471.864 488.354 471.864H489.65V471.24C489.65 470.643 489.506 470.216 489.218 469.96C488.93 469.704 488.487 469.576 487.89 469.576C487.271 469.576 486.514 469.725 485.618 470.024L485.25 468.952C486.295 468.568 487.266 468.376 488.162 468.376C489.154 468.376 489.895 468.621 490.386 469.112C490.877 469.592 491.122 470.28 491.122 471.176V475.032ZM487.666 476.088C488.509 476.088 489.17 475.651 489.65 474.776V472.84H488.546C486.989 472.84 486.21 473.416 486.21 474.568C486.21 475.069 486.333 475.448 486.578 475.704C486.823 475.96 487.186 476.088 487.666 476.088ZM496.277 468.376C496.853 468.376 497.37 468.456 497.829 468.616C498.287 468.776 498.725 469.016 499.141 469.336L498.517 470.264C498.133 470.019 497.765 469.837 497.413 469.72C497.071 469.603 496.709 469.544 496.325 469.544C495.845 469.544 495.466 469.645 495.189 469.848C494.911 470.04 494.773 470.307 494.773 470.648C494.773 470.989 494.901 471.256 495.157 471.448C495.423 471.64 495.898 471.827 496.581 472.008C497.519 472.243 498.218 472.563 498.677 472.968C499.146 473.373 499.381 473.928 499.381 474.632C499.381 475.464 499.055 476.099 498.405 476.536C497.765 476.973 496.981 477.192 496.053 477.192C494.773 477.192 493.711 476.824 492.869 476.088L493.653 475.192C494.367 475.736 495.157 476.008 496.021 476.008C496.575 476.008 497.013 475.896 497.333 475.672C497.663 475.437 497.829 475.123 497.829 474.728C497.829 474.44 497.77 474.211 497.653 474.04C497.535 473.859 497.333 473.704 497.045 473.576C496.757 473.437 496.335 473.293 495.781 473.144C494.885 472.909 494.234 472.595 493.829 472.2C493.434 471.805 493.237 471.304 493.237 470.696C493.237 470.259 493.365 469.864 493.621 469.512C493.887 469.149 494.25 468.872 494.709 468.68C495.178 468.477 495.701 468.376 496.277 468.376ZM505.714 476.616C505.159 477 504.53 477.192 503.826 477.192C503.111 477.192 502.551 476.989 502.146 476.584C501.751 476.168 501.554 475.571 501.554 474.792V469.704H500.082V468.568H501.554V466.664L503.026 466.488V468.568H505.026L504.866 469.704H503.026V474.728C503.026 475.165 503.1 475.485 503.25 475.688C503.41 475.88 503.671 475.976 504.034 475.976C504.364 475.976 504.738 475.864 505.154 475.64L505.714 476.616ZM514.273 465.784C515.009 465.784 515.638 465.891 516.161 466.104C516.684 466.307 517.19 466.627 517.681 467.064L516.849 467.992C516.433 467.661 516.022 467.421 515.617 467.272C515.222 467.112 514.796 467.032 514.337 467.032C513.761 467.032 513.286 467.165 512.913 467.432C512.54 467.699 512.353 468.088 512.353 468.6C512.353 468.92 512.417 469.192 512.545 469.416C512.673 469.629 512.908 469.827 513.249 470.008C513.601 470.189 514.108 470.381 514.769 470.584C515.462 470.797 516.038 471.027 516.497 471.272C516.956 471.517 517.324 471.859 517.601 472.296C517.889 472.723 518.033 473.267 518.033 473.928C518.033 474.568 517.873 475.133 517.553 475.624C517.244 476.115 516.79 476.499 516.193 476.776C515.606 477.053 514.908 477.192 514.097 477.192C512.572 477.192 511.324 476.717 510.353 475.768L511.185 474.84C511.633 475.203 512.086 475.48 512.545 475.672C513.004 475.853 513.516 475.944 514.081 475.944C514.764 475.944 515.329 475.779 515.777 475.448C516.225 475.107 516.449 474.616 516.449 473.976C516.449 473.613 516.38 473.315 516.241 473.08C516.102 472.835 515.862 472.616 515.521 472.424C515.19 472.232 514.705 472.04 514.065 471.848C512.934 471.507 512.108 471.096 511.585 470.616C511.062 470.136 510.801 469.485 510.801 468.664C510.801 468.109 510.945 467.613 511.233 467.176C511.532 466.739 511.942 466.397 512.465 466.152C512.998 465.907 513.601 465.784 514.273 465.784ZM524.16 468.376C524.928 468.376 525.525 468.605 525.952 469.064C526.389 469.523 526.608 470.152 526.608 470.952V477H525.136V471.16C525.136 470.563 525.019 470.141 524.784 469.896C524.56 469.651 524.229 469.528 523.792 469.528C523.355 469.528 522.965 469.656 522.624 469.912C522.283 470.168 521.963 470.531 521.664 471V477H520.192V465.192L521.664 465.032V469.736C522.325 468.829 523.157 468.376 524.16 468.376ZM532.735 468.376C533.919 468.376 534.836 468.771 535.487 469.56C536.148 470.349 536.479 471.421 536.479 472.776C536.479 473.651 536.33 474.424 536.031 475.096C535.732 475.757 535.3 476.275 534.735 476.648C534.17 477.011 533.498 477.192 532.719 477.192C531.535 477.192 530.612 476.797 529.951 476.008C529.29 475.219 528.959 474.147 528.959 472.792C528.959 471.917 529.108 471.149 529.407 470.488C529.706 469.816 530.138 469.299 530.703 468.936C531.268 468.563 531.946 468.376 532.735 468.376ZM532.735 469.56C531.274 469.56 530.543 470.637 530.543 472.792C530.543 474.936 531.268 476.008 532.719 476.008C534.17 476.008 534.895 474.931 534.895 472.776C534.895 470.632 534.175 469.56 532.735 469.56ZM542.575 468.376C542.873 468.376 543.151 468.408 543.407 468.472L543.135 469.912C542.879 469.848 542.633 469.816 542.399 469.816C541.876 469.816 541.455 470.008 541.135 470.392C540.815 470.776 540.564 471.373 540.383 472.184V477H538.911V468.568H540.175L540.319 470.28C540.543 469.651 540.847 469.176 541.231 468.856C541.615 468.536 542.063 468.376 542.575 468.376ZM550.966 472.536C550.966 472.781 550.955 473.032 550.934 473.288H545.558C545.622 474.216 545.857 474.899 546.262 475.336C546.667 475.773 547.19 475.992 547.83 475.992C548.235 475.992 548.609 475.933 548.95 475.816C549.291 475.699 549.649 475.512 550.022 475.256L550.662 476.136C549.766 476.84 548.785 477.192 547.718 477.192C546.545 477.192 545.627 476.808 544.966 476.04C544.315 475.272 543.99 474.216 543.99 472.872C543.99 471.997 544.129 471.224 544.406 470.552C544.694 469.869 545.099 469.336 545.622 468.952C546.155 468.568 546.779 468.376 547.494 468.376C548.614 468.376 549.473 468.744 550.07 469.48C550.667 470.216 550.966 471.235 550.966 472.536ZM549.51 472.104C549.51 471.272 549.345 470.637 549.014 470.2C548.683 469.763 548.187 469.544 547.526 469.544C546.321 469.544 545.665 470.429 545.558 472.2H549.51V472.104ZM563.738 464.184V478.568H563.386V464.184H563.738ZM578.773 476.376C579.36 476.376 579.893 476.467 580.373 476.648C580.853 476.819 581.317 477.059 581.765 477.368L580.773 478.648C580.133 478.083 579.525 477.693 578.949 477.48C578.373 477.267 577.595 477.16 576.613 477.16C575.696 477.16 574.891 476.947 574.197 476.52C573.504 476.083 572.96 475.443 572.565 474.6C572.181 473.747 571.989 472.717 571.989 471.512C571.989 470.328 572.181 469.304 572.565 468.44C572.96 467.576 573.509 466.92 574.213 466.472C574.917 466.013 575.728 465.784 576.645 465.784C577.573 465.784 578.384 466.008 579.077 466.456C579.781 466.893 580.325 467.539 580.709 468.392C581.104 469.245 581.301 470.28 581.301 471.496C581.301 472.787 581.088 473.816 580.661 474.584C580.235 475.341 579.605 475.939 578.773 476.376ZM573.605 471.512C573.605 473.037 573.872 474.157 574.405 474.872C574.949 475.587 575.696 475.944 576.645 475.944C578.672 475.944 579.685 474.461 579.685 471.496C579.685 468.52 578.672 467.032 576.645 467.032C575.685 467.032 574.939 467.395 574.405 468.12C573.872 468.845 573.605 469.976 573.605 471.512ZM589.964 477H588.7L588.588 475.688C588.268 476.211 587.9 476.595 587.484 476.84C587.068 477.075 586.561 477.192 585.964 477.192C585.228 477.192 584.652 476.968 584.236 476.52C583.82 476.072 583.612 475.437 583.612 474.616V468.568H585.084V474.456C585.084 475.032 585.185 475.443 585.388 475.688C585.591 475.923 585.921 476.04 586.38 476.04C587.201 476.04 587.905 475.555 588.492 474.584V468.568H589.964V477ZM599.372 472.536C599.372 472.781 599.362 473.032 599.34 473.288H593.964C594.028 474.216 594.263 474.899 594.668 475.336C595.074 475.773 595.596 475.992 596.236 475.992C596.642 475.992 597.015 475.933 597.356 475.816C597.698 475.699 598.055 475.512 598.428 475.256L599.068 476.136C598.172 476.84 597.191 477.192 596.124 477.192C594.951 477.192 594.034 476.808 593.372 476.04C592.722 475.272 592.396 474.216 592.396 472.872C592.396 471.997 592.535 471.224 592.812 470.552C593.1 469.869 593.506 469.336 594.028 468.952C594.562 468.568 595.186 468.376 595.9 468.376C597.02 468.376 597.879 468.744 598.476 469.48C599.074 470.216 599.372 471.235 599.372 472.536ZM597.916 472.104C597.916 471.272 597.751 470.637 597.42 470.2C597.09 469.763 596.594 469.544 595.932 469.544C594.727 469.544 594.071 470.429 593.964 472.2H597.916V472.104ZM608.091 472.536C608.091 472.781 608.08 473.032 608.059 473.288H602.683C602.747 474.216 602.982 474.899 603.387 475.336C603.792 475.773 604.315 475.992 604.955 475.992C605.36 475.992 605.734 475.933 606.075 475.816C606.416 475.699 606.774 475.512 607.147 475.256L607.787 476.136C606.891 476.84 605.91 477.192 604.843 477.192C603.67 477.192 602.752 476.808 602.091 476.04C601.44 475.272 601.115 474.216 601.115 472.872C601.115 471.997 601.254 471.224 601.531 470.552C601.819 469.869 602.224 469.336 602.747 468.952C603.28 468.568 603.904 468.376 604.619 468.376C605.739 468.376 606.598 468.744 607.195 469.48C607.792 470.216 608.091 471.235 608.091 472.536ZM606.635 472.104C606.635 471.272 606.47 470.637 606.139 470.2C605.808 469.763 605.312 469.544 604.651 469.544C603.446 469.544 602.79 470.429 602.683 472.2H606.635V472.104ZM614.41 468.376C615.178 468.376 615.775 468.605 616.202 469.064C616.639 469.523 616.858 470.152 616.858 470.952V477H615.386V471.16C615.386 470.563 615.274 470.141 615.05 469.896C614.826 469.651 614.495 469.528 614.058 469.528C613.61 469.528 613.215 469.656 612.874 469.912C612.533 470.168 612.213 470.536 611.914 471.016V477H610.442V468.568H611.706L611.834 469.816C612.133 469.368 612.501 469.016 612.938 468.76C613.386 468.504 613.877 468.376 614.41 468.376ZM622.105 468.376C622.681 468.376 623.198 468.456 623.657 468.616C624.116 468.776 624.553 469.016 624.969 469.336L624.345 470.264C623.961 470.019 623.593 469.837 623.241 469.72C622.9 469.603 622.537 469.544 622.153 469.544C621.673 469.544 621.294 469.645 621.017 469.848C620.74 470.04 620.601 470.307 620.601 470.648C620.601 470.989 620.729 471.256 620.985 471.448C621.252 471.64 621.726 471.827 622.409 472.008C623.348 472.243 624.046 472.563 624.505 472.968C624.974 473.373 625.209 473.928 625.209 474.632C625.209 475.464 624.884 476.099 624.233 476.536C623.593 476.973 622.809 477.192 621.881 477.192C620.601 477.192 619.54 476.824 618.697 476.088L619.481 475.192C620.196 475.736 620.985 476.008 621.849 476.008C622.404 476.008 622.841 475.896 623.161 475.672C623.492 475.437 623.657 475.123 623.657 474.728C623.657 474.44 623.598 474.211 623.481 474.04C623.364 473.859 623.161 473.704 622.873 473.576C622.585 473.437 622.164 473.293 621.609 473.144C620.713 472.909 620.062 472.595 619.657 472.2C619.262 471.805 619.065 471.304 619.065 470.696C619.065 470.259 619.193 469.864 619.449 469.512C619.716 469.149 620.078 468.872 620.537 468.68C621.006 468.477 621.529 468.376 622.105 468.376ZM628.966 477.192C628.422 477.192 627.99 477.032 627.67 476.712C627.36 476.381 627.206 475.923 627.206 475.336V465.176L628.678 465V475.304C628.678 475.539 628.715 475.709 628.79 475.816C628.875 475.923 629.014 475.976 629.206 475.976C629.408 475.976 629.59 475.944 629.75 475.88L630.134 476.904C629.782 477.096 629.392 477.192 628.966 477.192ZM637.575 475.032C637.575 475.373 637.634 475.629 637.751 475.8C637.868 475.96 638.044 476.083 638.279 476.168L637.943 477.192C637.506 477.139 637.154 477.016 636.887 476.824C636.62 476.632 636.423 476.333 636.295 475.928C635.73 476.771 634.892 477.192 633.783 477.192C632.951 477.192 632.295 476.957 631.815 476.488C631.335 476.019 631.095 475.405 631.095 474.648C631.095 473.752 631.415 473.064 632.055 472.584C632.706 472.104 633.623 471.864 634.807 471.864H636.103V471.24C636.103 470.643 635.959 470.216 635.671 469.96C635.383 469.704 634.94 469.576 634.343 469.576C633.724 469.576 632.967 469.725 632.071 470.024L631.703 468.952C632.748 468.568 633.719 468.376 634.615 468.376C635.607 468.376 636.348 468.621 636.839 469.112C637.33 469.592 637.575 470.28 637.575 471.176V475.032ZM634.119 476.088C634.962 476.088 635.623 475.651 636.103 474.776V472.84H634.999C633.442 472.84 632.663 473.416 632.663 474.568C632.663 475.069 632.786 475.448 633.031 475.704C633.276 475.96 633.639 476.088 634.119 476.088ZM644.566 468.376C645.334 468.376 645.931 468.605 646.358 469.064C646.795 469.523 647.014 470.152 647.014 470.952V477H645.542V471.16C645.542 470.563 645.43 470.141 645.206 469.896C644.982 469.651 644.651 469.528 644.214 469.528C643.766 469.528 643.371 469.656 643.03 469.912C642.689 470.168 642.369 470.536 642.07 471.016V477H640.598V468.568H641.862L641.99 469.816C642.289 469.368 642.657 469.016 643.094 468.76C643.542 468.504 644.033 468.376 644.566 468.376ZM656.501 465.176V477H655.205L655.061 475.832C654.784 476.259 654.437 476.595 654.021 476.84C653.605 477.075 653.141 477.192 652.629 477.192C651.626 477.192 650.842 476.797 650.277 476.008C649.722 475.219 649.445 474.157 649.445 472.824C649.445 471.96 649.578 471.192 649.845 470.52C650.112 469.848 650.496 469.325 650.997 468.952C651.498 468.568 652.085 468.376 652.757 468.376C653.621 468.376 654.378 468.723 655.029 469.416V465L656.501 465.176ZM652.949 476.024C653.397 476.024 653.781 475.923 654.101 475.72C654.421 475.507 654.73 475.192 655.029 474.776V470.648C654.752 470.285 654.453 470.013 654.133 469.832C653.824 469.64 653.472 469.544 653.077 469.544C652.426 469.544 651.92 469.816 651.557 470.36C651.205 470.904 651.029 471.715 651.029 472.792C651.029 473.88 651.194 474.691 651.525 475.224C651.856 475.757 652.33 476.024 652.949 476.024ZM659.92 474.968C660.24 474.968 660.506 475.075 660.72 475.288C660.933 475.501 661.04 475.763 661.04 476.072C661.04 476.403 660.944 476.781 660.752 477.208L659.68 479.656H658.624L659.264 477C659.125 476.893 659.013 476.76 658.928 476.6C658.853 476.44 658.816 476.264 658.816 476.072C658.816 475.763 658.922 475.501 659.136 475.288C659.349 475.075 659.61 474.968 659.92 474.968ZM673.566 477L672.734 474.232H668.558L667.726 477H666.19L669.726 465.976H671.646L675.166 477H673.566ZM668.926 473H672.366L670.654 467.24L668.926 473ZM683.058 477H681.794L681.682 475.688C681.362 476.211 680.994 476.595 680.578 476.84C680.162 477.075 679.655 477.192 679.058 477.192C678.322 477.192 677.746 476.968 677.33 476.52C676.914 476.072 676.706 475.437 676.706 474.616V468.568H678.178V474.456C678.178 475.032 678.279 475.443 678.482 475.688C678.684 475.923 679.015 476.04 679.474 476.04C680.295 476.04 680.999 475.555 681.586 474.584V468.568H683.058V477ZM688.386 468.376C688.962 468.376 689.479 468.456 689.938 468.616C690.397 468.776 690.834 469.016 691.25 469.336L690.626 470.264C690.242 470.019 689.874 469.837 689.522 469.72C689.181 469.603 688.818 469.544 688.434 469.544C687.954 469.544 687.575 469.645 687.298 469.848C687.021 470.04 686.882 470.307 686.882 470.648C686.882 470.989 687.01 471.256 687.266 471.448C687.533 471.64 688.007 471.827 688.69 472.008C689.629 472.243 690.327 472.563 690.786 472.968C691.255 473.373 691.49 473.928 691.49 474.632C691.49 475.464 691.165 476.099 690.514 476.536C689.874 476.973 689.09 477.192 688.162 477.192C686.882 477.192 685.821 476.824 684.978 476.088L685.762 475.192C686.477 475.736 687.266 476.008 688.13 476.008C688.685 476.008 689.122 475.896 689.442 475.672C689.773 475.437 689.938 475.123 689.938 474.728C689.938 474.44 689.879 474.211 689.762 474.04C689.645 473.859 689.442 473.704 689.154 473.576C688.866 473.437 688.445 473.293 687.89 473.144C686.994 472.909 686.343 472.595 685.938 472.2C685.543 471.805 685.346 471.304 685.346 470.696C685.346 470.259 685.474 469.864 685.73 469.512C685.997 469.149 686.359 468.872 686.818 468.68C687.287 468.477 687.81 468.376 688.386 468.376ZM697.823 476.616C697.268 477 696.639 477.192 695.935 477.192C695.22 477.192 694.66 476.989 694.255 476.584C693.86 476.168 693.663 475.571 693.663 474.792V469.704H692.191V468.568H693.663V466.664L695.135 466.488V468.568H697.135L696.975 469.704H695.135V474.728C695.135 475.165 695.21 475.485 695.359 475.688C695.519 475.88 695.78 475.976 696.143 475.976C696.474 475.976 696.847 475.864 697.263 475.64L697.823 476.616ZM703.012 468.376C703.311 468.376 703.588 468.408 703.844 468.472L703.572 469.912C703.316 469.848 703.071 469.816 702.836 469.816C702.313 469.816 701.892 470.008 701.572 470.392C701.252 470.776 701.001 471.373 700.82 472.184V477H699.348V468.568H700.612L700.756 470.28C700.98 469.651 701.284 469.176 701.668 468.856C702.052 468.536 702.5 468.376 703.012 468.376Z" fill="white"/>
<path d="M598.378 75.784C599.039 75.784 599.594 75.8693 600.042 76.04C600.501 76.2107 600.965 76.488 601.434 76.872L600.602 77.848C599.93 77.304 599.221 77.032 598.474 77.032C597.557 77.032 596.815 77.384 596.25 78.088C595.695 78.792 595.418 79.9227 595.418 81.48C595.418 82.9947 595.695 84.1147 596.25 84.84C596.805 85.5547 597.541 85.912 598.458 85.912C598.927 85.912 599.338 85.832 599.69 85.672C600.042 85.512 600.415 85.288 600.81 85L601.562 85.96C601.221 86.312 600.783 86.6053 600.25 86.84C599.717 87.0747 599.103 87.192 598.41 87.192C597.514 87.192 596.714 86.9733 596.01 86.536C595.317 86.088 594.773 85.4373 594.378 84.584C593.994 83.72 593.802 82.6853 593.802 81.48C593.802 80.2747 594.005 79.2453 594.41 78.392C594.815 77.528 595.365 76.8773 596.058 76.44C596.751 76.0027 597.525 75.784 598.378 75.784ZM609.401 87H608.137L608.025 85.688C607.705 86.2107 607.337 86.5947 606.921 86.84C606.505 87.0747 605.999 87.192 605.401 87.192C604.665 87.192 604.089 86.968 603.673 86.52C603.257 86.072 603.049 85.4373 603.049 84.616V78.568H604.521V84.456C604.521 85.032 604.623 85.4427 604.825 85.688C605.028 85.9227 605.359 86.04 605.817 86.04C606.639 86.04 607.343 85.5547 607.929 84.584V78.568H609.401V87ZM616.106 78.376C616.405 78.376 616.682 78.408 616.938 78.472L616.666 79.912C616.41 79.848 616.165 79.816 615.93 79.816C615.407 79.816 614.986 80.008 614.666 80.392C614.346 80.776 614.095 81.3733 613.914 82.184V87H612.442V78.568H613.706L613.85 80.28C614.074 79.6507 614.378 79.176 614.762 78.856C615.146 78.536 615.594 78.376 616.106 78.376ZM622.278 78.376C622.576 78.376 622.854 78.408 623.11 78.472L622.838 79.912C622.582 79.848 622.336 79.816 622.102 79.816C621.579 79.816 621.158 80.008 620.838 80.392C620.518 80.776 620.267 81.3733 620.086 82.184V87H618.614V78.568H619.878L620.022 80.28C620.246 79.6507 620.55 79.176 620.934 78.856C621.318 78.536 621.766 78.376 622.278 78.376ZM630.669 82.536C630.669 82.7813 630.659 83.032 630.637 83.288H625.261C625.325 84.216 625.56 84.8987 625.965 85.336C626.371 85.7733 626.893 85.992 627.533 85.992C627.939 85.992 628.312 85.9333 628.653 85.816C628.995 85.6987 629.352 85.512 629.725 85.256L630.365 86.136C629.469 86.84 628.488 87.192 627.421 87.192C626.248 87.192 625.331 86.808 624.669 86.04C624.019 85.272 623.693 84.216 623.693 82.872C623.693 81.9973 623.832 81.224 624.109 80.552C624.397 79.8693 624.803 79.336 625.325 78.952C625.859 78.568 626.483 78.376 627.197 78.376C628.317 78.376 629.176 78.744 629.773 79.48C630.371 80.216 630.669 81.2347 630.669 82.536ZM629.213 82.104C629.213 81.272 629.048 80.6373 628.717 80.2C628.387 79.7627 627.891 79.544 627.229 79.544C626.024 79.544 625.368 80.4293 625.261 82.2H629.213V82.104ZM636.988 78.376C637.756 78.376 638.353 78.6053 638.78 79.064C639.217 79.5227 639.436 80.152 639.436 80.952V87H637.964V81.16C637.964 80.5627 637.852 80.1413 637.628 79.896C637.404 79.6507 637.073 79.528 636.636 79.528C636.188 79.528 635.793 79.656 635.452 79.912C635.111 80.168 634.791 80.536 634.492 81.016V87H633.02V78.568H634.284L634.412 79.816C634.711 79.368 635.079 79.016 635.516 78.76C635.964 78.504 636.455 78.376 636.988 78.376ZM646.651 86.616C646.096 87 645.467 87.192 644.763 87.192C644.048 87.192 643.488 86.9893 643.083 86.584C642.688 86.168 642.491 85.5707 642.491 84.792V79.704H641.019V78.568H642.491V76.664L643.963 76.488V78.568H645.963L645.803 79.704H643.963V84.728C643.963 85.1653 644.038 85.4853 644.187 85.688C644.347 85.88 644.608 85.976 644.971 85.976C645.302 85.976 645.675 85.864 646.091 85.64L646.651 86.616ZM654.011 75.976V85.672H658.539L658.363 87H652.491V75.976H654.011ZM663.141 78.376C664.325 78.376 665.242 78.7707 665.893 79.56C666.554 80.3493 666.885 81.4213 666.885 82.776C666.885 83.6507 666.736 84.424 666.437 85.096C666.138 85.7573 665.706 86.2747 665.141 86.648C664.576 87.0107 663.904 87.192 663.125 87.192C661.941 87.192 661.018 86.7973 660.357 86.008C659.696 85.2187 659.365 84.1467 659.365 82.792C659.365 81.9173 659.514 81.1493 659.813 80.488C660.112 79.816 660.544 79.2987 661.109 78.936C661.674 78.5627 662.352 78.376 663.141 78.376ZM663.141 79.56C661.68 79.56 660.949 80.6373 660.949 82.792C660.949 84.936 661.674 86.008 663.125 86.008C664.576 86.008 665.301 84.9307 665.301 82.776C665.301 80.632 664.581 79.56 663.141 79.56ZM672.389 78.376C672.89 78.376 673.349 78.4507 673.765 78.6C674.181 78.7387 674.581 78.968 674.965 79.288L674.261 80.216C673.962 80.0027 673.669 79.848 673.381 79.752C673.104 79.6453 672.794 79.592 672.453 79.592C671.77 79.592 671.237 79.864 670.853 80.408C670.48 80.952 670.293 81.7573 670.293 82.824C670.293 83.8907 670.48 84.68 670.853 85.192C671.226 85.6933 671.76 85.944 672.453 85.944C672.784 85.944 673.088 85.896 673.365 85.8C673.642 85.6933 673.952 85.528 674.293 85.304L674.965 86.264C674.197 86.8827 673.338 87.192 672.389 87.192C671.248 87.192 670.346 86.808 669.685 86.04C669.034 85.272 668.709 84.2107 668.709 82.856C668.709 81.96 668.858 81.176 669.157 80.504C669.456 79.832 669.877 79.3093 670.421 78.936C670.976 78.5627 671.632 78.376 672.389 78.376ZM682.481 85.032C682.481 85.3733 682.54 85.6293 682.657 85.8C682.775 85.96 682.951 86.0827 683.185 86.168L682.849 87.192C682.412 87.1387 682.06 87.016 681.793 86.824C681.527 86.632 681.329 86.3333 681.201 85.928C680.636 86.7707 679.799 87.192 678.689 87.192C677.857 87.192 677.201 86.9573 676.721 86.488C676.241 86.0187 676.001 85.4053 676.001 84.648C676.001 83.752 676.321 83.064 676.961 82.584C677.612 82.104 678.529 81.864 679.713 81.864H681.009V81.24C681.009 80.6427 680.865 80.216 680.577 79.96C680.289 79.704 679.847 79.576 679.249 79.576C678.631 79.576 677.873 79.7253 676.977 80.024L676.609 78.952C677.655 78.568 678.625 78.376 679.521 78.376C680.513 78.376 681.255 78.6213 681.745 79.112C682.236 79.592 682.481 80.28 682.481 81.176V85.032ZM679.025 86.088C679.868 86.088 680.529 85.6507 681.009 84.776V82.84H679.905C678.348 82.84 677.569 83.416 677.569 84.568C677.569 85.0693 677.692 85.448 677.937 85.704C678.183 85.96 678.545 86.088 679.025 86.088ZM689.76 86.616C689.206 87 688.576 87.192 687.872 87.192C687.158 87.192 686.598 86.9893 686.192 86.584C685.798 86.168 685.6 85.5707 685.6 84.792V79.704H684.128V78.568H685.6V76.664L687.072 76.488V78.568H689.072L688.912 79.704H687.072V84.728C687.072 85.1653 687.147 85.4853 687.296 85.688C687.456 85.88 687.718 85.976 688.08 85.976C688.411 85.976 688.784 85.864 689.2 85.64L689.76 86.616ZM692.758 78.568V87H691.286V78.568H692.758ZM692.006 74.52C692.315 74.52 692.566 74.616 692.758 74.808C692.95 75 693.046 75.24 693.046 75.528C693.046 75.816 692.95 76.056 692.758 76.248C692.566 76.4293 692.315 76.52 692.006 76.52C691.707 76.52 691.462 76.4293 691.27 76.248C691.078 76.056 690.982 75.816 690.982 75.528C690.982 75.24 691.078 75 691.27 74.808C691.462 74.616 691.707 74.52 692.006 74.52ZM698.969 78.376C700.153 78.376 701.071 78.7707 701.721 79.56C702.383 80.3493 702.713 81.4213 702.713 82.776C702.713 83.6507 702.564 84.424 702.265 85.096C701.967 85.7573 701.535 86.2747 700.969 86.648C700.404 87.0107 699.732 87.192 698.953 87.192C697.769 87.192 696.847 86.7973 696.185 86.008C695.524 85.2187 695.193 84.1467 695.193 82.792C695.193 81.9173 695.343 81.1493 695.641 80.488C695.94 79.816 696.372 79.2987 696.937 78.936C697.503 78.5627 698.18 78.376 698.969 78.376ZM698.969 79.56C697.508 79.56 696.777 80.6373 696.777 82.792C696.777 84.936 697.503 86.008 698.953 86.008C700.404 86.008 701.129 84.9307 701.129 82.776C701.129 80.632 700.409 79.56 698.969 79.56ZM709.113 78.376C709.881 78.376 710.478 78.6053 710.905 79.064C711.342 79.5227 711.561 80.152 711.561 80.952V87H710.089V81.16C710.089 80.5627 709.977 80.1413 709.753 79.896C709.529 79.6507 709.198 79.528 708.761 79.528C708.313 79.528 707.918 79.656 707.577 79.912C707.236 80.168 706.916 80.536 706.617 81.016V87H705.145V78.568H706.409L706.537 79.816C706.836 79.368 707.204 79.016 707.641 78.76C708.089 78.504 708.58 78.376 709.113 78.376Z" fill="white"/>
</svg>
