<svg width="1001" height="496" viewBox="0 0 1001 496" fill="none" xmlns="http://www.w3.org/2000/svg">
<g opacity="0.29827">
<path d="M1008.08 163.448L443.182 -356.858V-747.19L28.1096 -770C24.9043 -762.456 4.36709 -740.714 7.57176 -728.596C11.43 -714.102 30.8387 -718.735 36.4776 -709.409C43.0661 -698.42 31.7291 -653.749 28.3457 -640.86C21.8759 -616.445 7.09676 -596.665 2.82235 -572.25C-4.35982 -531.263 10.1824 -534.53 37.7242 -508.927C84.141 -465.742 46.9244 -420.952 58.6176 -370.223C68.1146 -328.878 109.605 -307.554 124.8 -266.211C136.553 -234.37 152.697 -226.233 177.746 -202.947C177.153 -217.084 164.51 -258.785 188.253 -255.102C211.817 -251.478 202.736 -216.669 207.247 -202.115C211.045 -189.997 237.933 -165.761 215.616 -154.593C208.196 -150.91 187.066 -165.582 178.577 -169.503C184.572 -150.791 180.774 -131.367 190.271 -113.487C201.608 -92.162 213.835 -100.359 228.853 -88.7754C244.344 -76.8355 242.683 -63.1137 235.797 -45.0554C228.615 -26.2247 221.196 -29.1352 232.592 -6.44342C240.843 9.95119 254.85 30.7421 266.9 43.2164C273.904 50.4634 281.502 52.1267 288.506 61.3932C294.323 69.1155 292.067 79.2142 299.012 86.1638C310.883 98.1037 331.006 98.282 340.384 113.904C350.831 131.309 338.96 144.437 369.706 142.833C371.309 177.643 377.897 209.185 377.541 243.994C394.695 250.825 422.414 242.687 440.399 239.063C458.266 263.18 481.355 246.429 501.774 259.558C510.678 265.26 508.837 279.517 514.239 284.506C525.339 294.723 533.529 288.308 547.301 291.872C557.51 294.486 565.404 301.97 575.138 304.703C584.338 307.257 599.475 301.258 606.301 309.396C614.492 319.138 600.78 336.958 613.127 344.799C623.395 351.333 638.115 335.77 648.088 338.027C659.721 340.7 693.079 371.174 701.271 381.212C710.59 392.677 719.969 414.062 725.25 428.793C733.501 451.841 732.373 463.127 749.408 479.998C760.27 490.75 749.942 491.522 767.63 494.67C779.204 496.749 794.518 488.374 806.212 487.067C830.549 484.394 855.122 489.027 879.102 484.453C901.421 480.176 922.729 473.166 945.64 469.899C965.465 467.048 1000.37 469.246 1017.94 459.801C1036.99 449.643 1038.71 426.654 1011.17 430.932C1008.97 416.26 1018.77 396.003 1007.85 385.847C1023.04 365.056 1028.56 350.384 1030.93 324.959C1032 313.792 1032.48 301.436 1038 292.05C1043.4 282.783 1058.59 277.259 1061.56 269.299C1066.13 256.943 1058.83 251.419 1053.25 244.528C1049.69 240.073 1039.54 242.212 1036.63 238.291C1031.23 231.103 1036.57 223.678 1033.6 216.431C1024.94 195.462 1014.61 187.205 1008.08 163.444C1008.26 167.424 1008.44 171.463 1008.2 175.384" stroke="white" stroke-width="2" stroke-linecap="round" stroke-linejoin="round"/>
</g>
<path d="M731.347 89C727.66 115.712 736.295 125.086 743.205 142.544C745.253 147.718 745.448 156.265 743.293 161.435C738.658 172.553 721.085 156.379 722.199 171.035C723.351 186.171 738.208 207.349 738.878 208.797C744.758 221.516 746.673 253.781 743.435 271.471C741.13 284.058 725.852 279.816 721.045 275.624C689.573 248.174 703.754 251.447 668.4 242.923C665.694 242.27 662.858 241.937 660.259 244.043C657.581 246.212 657.667 255.112 658.565 259.923C661.542 275.867 674.868 302.911 671.282 323.869C670.182 330.3 667.603 334.362 666.442 340.717C665.532 345.695 665.633 351.572 665.229 357" stroke="white" stroke-width="2"/>
<path fill-rule="evenodd" clip-rule="evenodd" d="M570 319C571.657 319 573 317.657 573 316C573 314.343 571.657 313 570 313C568.343 313 567 314.343 567 316C567 317.657 568.343 319 570 319Z" fill="#4AF6CD"/>
<path fill-rule="evenodd" clip-rule="evenodd" d="M664.5 370C668.09 370 671 367.09 671 363.5C671 359.91 668.09 357 664.5 357C660.91 357 658 359.91 658 363.5C658 367.09 660.91 370 664.5 370Z" fill="#4AF6CD"/>
<path fill-rule="evenodd" clip-rule="evenodd" d="M725 471C726.657 471 728 469.657 728 468C728 466.343 726.657 465 725 465C723.343 465 722 466.343 722 468C722 469.657 723.343 471 725 471Z" fill="#4AF6CD"/>
<path fill-rule="evenodd" clip-rule="evenodd" d="M365 228C366.657 228 368 226.657 368 225C368 223.343 366.657 222 365 222C363.343 222 362 223.343 362 225C362 226.657 363.343 228 365 228Z" fill="#4AF6CD"/>
<path fill-rule="evenodd" clip-rule="evenodd" d="M729.5 91C733.09 91 736 88.0899 736 84.5C736 80.9101 733.09 78 729.5 78C725.91 78 723 80.9101 723 84.5C723 88.0899 725.91 91 729.5 91Z" fill="#4AF6CD"/>
<path d="M459.16 341.976L456.92 353H454.968L452.936 343.768L450.888 353H448.984L446.744 341.976H448.232L450.008 351.672L452.136 341.976H453.752L455.928 351.672L457.768 341.976H459.16ZM467.294 348.536C467.294 348.781 467.284 349.032 467.262 349.288H461.886C461.95 350.216 462.185 350.899 462.59 351.336C462.996 351.773 463.518 351.992 464.158 351.992C464.564 351.992 464.937 351.933 465.278 351.816C465.62 351.699 465.977 351.512 466.35 351.256L466.99 352.136C466.094 352.84 465.113 353.192 464.046 353.192C462.873 353.192 461.956 352.808 461.294 352.04C460.644 351.272 460.318 350.216 460.318 348.872C460.318 347.997 460.457 347.224 460.734 346.552C461.022 345.869 461.428 345.336 461.95 344.952C462.484 344.568 463.108 344.376 463.822 344.376C464.942 344.376 465.801 344.744 466.398 345.48C466.996 346.216 467.294 347.235 467.294 348.536ZM465.838 348.104C465.838 347.272 465.673 346.637 465.342 346.2C465.012 345.763 464.516 345.544 463.854 345.544C462.649 345.544 461.993 346.429 461.886 348.2H465.838V348.104ZM471.933 344.376C472.509 344.376 473.026 344.456 473.485 344.616C473.944 344.776 474.381 345.016 474.797 345.336L474.173 346.264C473.789 346.019 473.421 345.837 473.069 345.72C472.728 345.603 472.365 345.544 471.981 345.544C471.501 345.544 471.122 345.645 470.845 345.848C470.568 346.04 470.429 346.307 470.429 346.648C470.429 346.989 470.557 347.256 470.813 347.448C471.08 347.64 471.554 347.827 472.237 348.008C473.176 348.243 473.874 348.563 474.333 348.968C474.802 349.373 475.037 349.928 475.037 350.632C475.037 351.464 474.712 352.099 474.061 352.536C473.421 352.973 472.637 353.192 471.709 353.192C470.429 353.192 469.368 352.824 468.525 352.088L469.309 351.192C470.024 351.736 470.813 352.008 471.677 352.008C472.232 352.008 472.669 351.896 472.989 351.672C473.32 351.437 473.485 351.123 473.485 350.728C473.485 350.44 473.426 350.211 473.309 350.04C473.192 349.859 472.989 349.704 472.701 349.576C472.413 349.437 471.992 349.293 471.437 349.144C470.541 348.909 469.89 348.595 469.485 348.2C469.09 347.805 468.893 347.304 468.893 346.696C468.893 346.259 469.021 345.864 469.277 345.512C469.544 345.149 469.906 344.872 470.365 344.68C470.834 344.477 471.357 344.376 471.933 344.376ZM481.37 352.616C480.815 353 480.186 353.192 479.482 353.192C478.767 353.192 478.207 352.989 477.802 352.584C477.407 352.168 477.21 351.571 477.21 350.792V345.704H475.738V344.568H477.21V342.664L478.682 342.488V344.568H480.682L480.522 345.704H478.682V350.728C478.682 351.165 478.756 351.485 478.906 351.688C479.066 351.88 479.327 351.976 479.69 351.976C480.02 351.976 480.394 351.864 480.81 351.64L481.37 352.616ZM489.929 341.784C490.665 341.784 491.295 341.891 491.817 342.104C492.34 342.307 492.847 342.627 493.337 343.064L492.505 343.992C492.089 343.661 491.679 343.421 491.273 343.272C490.879 343.112 490.452 343.032 489.993 343.032C489.417 343.032 488.943 343.165 488.569 343.432C488.196 343.699 488.009 344.088 488.009 344.6C488.009 344.92 488.073 345.192 488.201 345.416C488.329 345.629 488.564 345.827 488.905 346.008C489.257 346.189 489.764 346.381 490.425 346.584C491.119 346.797 491.695 347.027 492.153 347.272C492.612 347.517 492.98 347.859 493.257 348.296C493.545 348.723 493.689 349.267 493.689 349.928C493.689 350.568 493.529 351.133 493.209 351.624C492.9 352.115 492.447 352.499 491.849 352.776C491.263 353.053 490.564 353.192 489.753 353.192C488.228 353.192 486.98 352.717 486.009 351.768L486.841 350.84C487.289 351.203 487.743 351.48 488.201 351.672C488.66 351.853 489.172 351.944 489.737 351.944C490.42 351.944 490.985 351.779 491.433 351.448C491.881 351.107 492.105 350.616 492.105 349.976C492.105 349.613 492.036 349.315 491.897 349.08C491.759 348.835 491.519 348.616 491.177 348.424C490.847 348.232 490.361 348.04 489.721 347.848C488.591 347.507 487.764 347.096 487.241 346.616C486.719 346.136 486.457 345.485 486.457 344.664C486.457 344.109 486.601 343.613 486.889 343.176C487.188 342.739 487.599 342.397 488.121 342.152C488.655 341.907 489.257 341.784 489.929 341.784ZM499.816 344.376C500.584 344.376 501.181 344.605 501.608 345.064C502.045 345.523 502.264 346.152 502.264 346.952V353H500.792V347.16C500.792 346.563 500.675 346.141 500.44 345.896C500.216 345.651 499.885 345.528 499.448 345.528C499.011 345.528 498.621 345.656 498.28 345.912C497.939 346.168 497.619 346.531 497.32 347V353H495.848V341.192L497.32 341.032V345.736C497.981 344.829 498.813 344.376 499.816 344.376ZM508.391 344.376C509.575 344.376 510.492 344.771 511.143 345.56C511.804 346.349 512.135 347.421 512.135 348.776C512.135 349.651 511.986 350.424 511.687 351.096C511.388 351.757 510.956 352.275 510.391 352.648C509.826 353.011 509.154 353.192 508.375 353.192C507.191 353.192 506.268 352.797 505.607 352.008C504.946 351.219 504.615 350.147 504.615 348.792C504.615 347.917 504.764 347.149 505.063 346.488C505.362 345.816 505.794 345.299 506.359 344.936C506.924 344.563 507.602 344.376 508.391 344.376ZM508.391 345.56C506.93 345.56 506.199 346.637 506.199 348.792C506.199 350.936 506.924 352.008 508.375 352.008C509.826 352.008 510.551 350.931 510.551 348.776C510.551 346.632 509.831 345.56 508.391 345.56ZM518.231 344.376C518.53 344.376 518.807 344.408 519.063 344.472L518.791 345.912C518.535 345.848 518.29 345.816 518.055 345.816C517.532 345.816 517.111 346.008 516.791 346.392C516.471 346.776 516.22 347.373 516.039 348.184V353H514.567V344.568H515.831L515.975 346.28C516.199 345.651 516.503 345.176 516.887 344.856C517.271 344.536 517.719 344.376 518.231 344.376ZM526.622 348.536C526.622 348.781 526.612 349.032 526.59 349.288H521.214C521.278 350.216 521.513 350.899 521.918 351.336C522.324 351.773 522.846 351.992 523.486 351.992C523.892 351.992 524.265 351.933 524.606 351.816C524.948 351.699 525.305 351.512 525.678 351.256L526.318 352.136C525.422 352.84 524.441 353.192 523.374 353.192C522.201 353.192 521.284 352.808 520.622 352.04C519.972 351.272 519.646 350.216 519.646 348.872C519.646 347.997 519.785 347.224 520.062 346.552C520.35 345.869 520.756 345.336 521.278 344.952C521.812 344.568 522.436 344.376 523.15 344.376C524.27 344.376 525.129 344.744 525.726 345.48C526.324 346.216 526.622 347.235 526.622 348.536ZM525.166 348.104C525.166 347.272 525.001 346.637 524.67 346.2C524.34 345.763 523.844 345.544 523.182 345.544C521.977 345.544 521.321 346.429 521.214 348.2H525.166V348.104ZM539.394 340.184V354.568H539.042V340.184H539.394ZM552.222 341.784C552.883 341.784 553.438 341.869 553.886 342.04C554.344 342.211 554.808 342.488 555.278 342.872L554.446 343.848C553.774 343.304 553.064 343.032 552.318 343.032C551.4 343.032 550.659 343.384 550.094 344.088C549.539 344.792 549.262 345.923 549.262 347.48C549.262 348.995 549.539 350.115 550.094 350.84C550.648 351.555 551.384 351.912 552.302 351.912C552.771 351.912 553.182 351.832 553.534 351.672C553.886 351.512 554.259 351.288 554.654 351L555.406 351.96C555.064 352.312 554.627 352.605 554.094 352.84C553.56 353.075 552.947 353.192 552.254 353.192C551.358 353.192 550.558 352.973 549.854 352.536C549.16 352.088 548.616 351.437 548.222 350.584C547.838 349.72 547.646 348.685 547.646 347.48C547.646 346.275 547.848 345.245 548.254 344.392C548.659 343.528 549.208 342.877 549.902 342.44C550.595 342.003 551.368 341.784 552.222 341.784ZM562.763 351.032C562.763 351.373 562.821 351.629 562.939 351.8C563.056 351.96 563.232 352.083 563.467 352.168L563.131 353.192C562.693 353.139 562.341 353.016 562.075 352.824C561.808 352.632 561.611 352.333 561.483 351.928C560.917 352.771 560.08 353.192 558.971 353.192C558.139 353.192 557.483 352.957 557.003 352.488C556.523 352.019 556.283 351.405 556.283 350.648C556.283 349.752 556.603 349.064 557.243 348.584C557.893 348.104 558.811 347.864 559.995 347.864H561.291V347.24C561.291 346.643 561.147 346.216 560.859 345.96C560.571 345.704 560.128 345.576 559.531 345.576C558.912 345.576 558.155 345.725 557.259 346.024L556.891 344.952C557.936 344.568 558.907 344.376 559.803 344.376C560.795 344.376 561.536 344.621 562.027 345.112C562.517 345.592 562.763 346.28 562.763 347.176V351.032ZM559.307 352.088C560.149 352.088 560.811 351.651 561.291 350.776V348.84H560.187C558.629 348.84 557.851 349.416 557.851 350.568C557.851 351.069 557.973 351.448 558.219 351.704C558.464 351.96 558.827 352.088 559.307 352.088ZM567.309 353.192C566.765 353.192 566.333 353.032 566.013 352.712C565.704 352.381 565.549 351.923 565.549 351.336V341.176L567.021 341V351.304C567.021 351.539 567.059 351.709 567.133 351.816C567.219 351.923 567.357 351.976 567.549 351.976C567.752 351.976 567.933 351.944 568.093 351.88L568.477 352.904C568.125 353.096 567.736 353.192 567.309 353.192ZM571.789 344.568V353H570.317V344.568H571.789ZM571.037 340.52C571.346 340.52 571.597 340.616 571.789 340.808C571.981 341 572.077 341.24 572.077 341.528C572.077 341.816 571.981 342.056 571.789 342.248C571.597 342.429 571.346 342.52 571.037 342.52C570.738 342.52 570.493 342.429 570.301 342.248C570.109 342.056 570.013 341.816 570.013 341.528C570.013 341.24 570.109 341 570.301 340.808C570.493 340.616 570.738 340.52 571.037 340.52ZM577.697 342.184C577.249 342.184 576.929 342.285 576.737 342.488C576.545 342.68 576.449 342.984 576.449 343.4V344.568H578.497L578.337 345.704H576.449V353H574.977V345.704H573.473V344.568H574.977V343.416C574.977 342.691 575.206 342.109 575.664 341.672C576.134 341.224 576.785 341 577.617 341C578.001 341 578.342 341.037 578.641 341.112C578.95 341.176 579.281 341.283 579.633 341.432L579.169 342.504C578.689 342.291 578.198 342.184 577.697 342.184ZM583.204 344.376C584.388 344.376 585.305 344.771 585.956 345.56C586.617 346.349 586.948 347.421 586.948 348.776C586.948 349.651 586.798 350.424 586.5 351.096C586.201 351.757 585.769 352.275 585.204 352.648C584.638 353.011 583.966 353.192 583.188 353.192C582.004 353.192 581.081 352.797 580.42 352.008C579.758 351.219 579.428 350.147 579.428 348.792C579.428 347.917 579.577 347.149 579.876 346.488C580.174 345.816 580.606 345.299 581.172 344.936C581.737 344.563 582.414 344.376 583.204 344.376ZM583.204 345.56C581.742 345.56 581.012 346.637 581.012 348.792C581.012 350.936 581.737 352.008 583.188 352.008C584.638 352.008 585.364 350.931 585.364 348.776C585.364 346.632 584.644 345.56 583.204 345.56ZM593.043 344.376C593.342 344.376 593.619 344.408 593.875 344.472L593.603 345.912C593.347 345.848 593.102 345.816 592.867 345.816C592.345 345.816 591.923 346.008 591.603 346.392C591.283 346.776 591.033 347.373 590.851 348.184V353H589.379V344.568H590.643L590.787 346.28C591.011 345.651 591.315 345.176 591.699 344.856C592.083 344.536 592.531 344.376 593.043 344.376ZM599.519 344.376C600.287 344.376 600.885 344.605 601.311 345.064C601.749 345.523 601.967 346.152 601.967 346.952V353H600.495V347.16C600.495 346.563 600.383 346.141 600.159 345.896C599.935 345.651 599.605 345.528 599.167 345.528C598.719 345.528 598.325 345.656 597.983 345.912C597.642 346.168 597.322 346.536 597.023 347.016V353H595.551V344.568H596.815L596.943 345.816C597.242 345.368 597.61 345.016 598.047 344.76C598.495 344.504 598.986 344.376 599.519 344.376ZM606.398 344.568V353H604.926V344.568H606.398ZM605.646 340.52C605.956 340.52 606.206 340.616 606.398 340.808C606.59 341 606.686 341.24 606.686 341.528C606.686 341.816 606.59 342.056 606.398 342.248C606.206 342.429 605.956 342.52 605.646 342.52C605.348 342.52 605.102 342.429 604.91 342.248C604.718 342.056 604.622 341.816 604.622 341.528C604.622 341.24 604.718 341 604.91 340.808C605.102 340.616 605.348 340.52 605.646 340.52ZM615.122 351.032C615.122 351.373 615.181 351.629 615.298 351.8C615.415 351.96 615.591 352.083 615.826 352.168L615.49 353.192C615.053 353.139 614.701 353.016 614.434 352.824C614.167 352.632 613.97 352.333 613.842 351.928C613.277 352.771 612.439 353.192 611.33 353.192C610.498 353.192 609.842 352.957 609.362 352.488C608.882 352.019 608.642 351.405 608.642 350.648C608.642 349.752 608.962 349.064 609.602 348.584C610.253 348.104 611.17 347.864 612.354 347.864H613.65V347.24C613.65 346.643 613.506 346.216 613.218 345.96C612.93 345.704 612.487 345.576 611.89 345.576C611.271 345.576 610.514 345.725 609.618 346.024L609.25 344.952C610.295 344.568 611.266 344.376 612.162 344.376C613.154 344.376 613.895 344.621 614.386 345.112C614.877 345.592 615.122 346.28 615.122 347.176V351.032ZM611.666 352.088C612.509 352.088 613.17 351.651 613.65 350.776V348.84H612.546C610.989 348.84 610.21 349.416 610.21 350.568C610.21 351.069 610.333 351.448 610.578 351.704C610.823 351.96 611.186 352.088 611.666 352.088ZM618.529 350.968C618.849 350.968 619.116 351.075 619.329 351.288C619.542 351.501 619.649 351.763 619.649 352.072C619.649 352.403 619.553 352.781 619.361 353.208L618.289 355.656H617.233L617.873 353C617.734 352.893 617.622 352.76 617.537 352.6C617.462 352.44 617.425 352.264 617.425 352.072C617.425 351.763 617.532 351.501 617.745 351.288C617.958 351.075 618.22 350.968 618.529 350.968ZM633.855 349.464C633.855 350.2 633.7 350.851 633.391 351.416C633.092 351.971 632.65 352.408 632.063 352.728C631.487 353.037 630.794 353.192 629.983 353.192C628.756 353.192 627.807 352.856 627.135 352.184C626.474 351.501 626.143 350.595 626.143 349.464V341.976H627.663V349.352C627.663 350.205 627.855 350.845 628.239 351.272C628.623 351.699 629.204 351.912 629.983 351.912C630.772 351.912 631.359 351.704 631.743 351.288C632.127 350.861 632.319 350.216 632.319 349.352V341.976H633.855V349.464ZM639.508 341.784C640.244 341.784 640.873 341.891 641.396 342.104C641.918 342.307 642.425 342.627 642.916 343.064L642.084 343.992C641.668 343.661 641.257 343.421 640.852 343.272C640.457 343.112 640.03 343.032 639.572 343.032C638.996 343.032 638.521 343.165 638.148 343.432C637.774 343.699 637.588 344.088 637.588 344.6C637.588 344.92 637.652 345.192 637.78 345.416C637.908 345.629 638.142 345.827 638.484 346.008C638.836 346.189 639.342 346.381 640.004 346.584C640.697 346.797 641.273 347.027 641.732 347.272C642.19 347.517 642.558 347.859 642.836 348.296C643.124 348.723 643.267 349.267 643.267 349.928C643.267 350.568 643.108 351.133 642.788 351.624C642.478 352.115 642.025 352.499 641.428 352.776C640.841 353.053 640.142 353.192 639.332 353.192C637.806 353.192 636.558 352.717 635.588 351.768L636.42 350.84C636.868 351.203 637.321 351.48 637.78 351.672C638.238 351.853 638.75 351.944 639.316 351.944C639.998 351.944 640.564 351.779 641.012 351.448C641.46 351.107 641.684 350.616 641.684 349.976C641.684 349.613 641.614 349.315 641.476 349.08C641.337 348.835 641.097 348.616 640.756 348.424C640.425 348.232 639.94 348.04 639.299 347.848C638.169 347.507 637.342 347.096 636.82 346.616C636.297 346.136 636.036 345.485 636.036 344.664C636.036 344.109 636.18 343.613 636.468 343.176C636.766 342.739 637.177 342.397 637.7 342.152C638.233 341.907 638.836 341.784 639.508 341.784ZM651.3 353L650.468 350.232H646.292L645.46 353H643.924L647.46 341.976H649.38L652.9 353H651.3ZM646.66 349H650.1L648.388 343.24L646.66 349Z" fill="white"/>
<path d="M598.378 75.784C599.039 75.784 599.594 75.8693 600.042 76.04C600.501 76.2107 600.965 76.488 601.434 76.872L600.602 77.848C599.93 77.304 599.221 77.032 598.474 77.032C597.557 77.032 596.815 77.384 596.25 78.088C595.695 78.792 595.418 79.9227 595.418 81.48C595.418 82.9947 595.695 84.1147 596.25 84.84C596.805 85.5547 597.541 85.912 598.458 85.912C598.927 85.912 599.338 85.832 599.69 85.672C600.042 85.512 600.415 85.288 600.81 85L601.562 85.96C601.221 86.312 600.783 86.6053 600.25 86.84C599.717 87.0747 599.103 87.192 598.41 87.192C597.514 87.192 596.714 86.9733 596.01 86.536C595.317 86.088 594.773 85.4373 594.378 84.584C593.994 83.72 593.802 82.6853 593.802 81.48C593.802 80.2747 594.005 79.2453 594.41 78.392C594.815 77.528 595.365 76.8773 596.058 76.44C596.751 76.0027 597.525 75.784 598.378 75.784ZM609.401 87H608.137L608.025 85.688C607.705 86.2107 607.337 86.5947 606.921 86.84C606.505 87.0747 605.999 87.192 605.401 87.192C604.665 87.192 604.089 86.968 603.673 86.52C603.257 86.072 603.049 85.4373 603.049 84.616V78.568H604.521V84.456C604.521 85.032 604.623 85.4427 604.825 85.688C605.028 85.9227 605.359 86.04 605.817 86.04C606.639 86.04 607.343 85.5547 607.929 84.584V78.568H609.401V87ZM616.106 78.376C616.405 78.376 616.682 78.408 616.938 78.472L616.666 79.912C616.41 79.848 616.165 79.816 615.93 79.816C615.407 79.816 614.986 80.008 614.666 80.392C614.346 80.776 614.095 81.3733 613.914 82.184V87H612.442V78.568H613.706L613.85 80.28C614.074 79.6507 614.378 79.176 614.762 78.856C615.146 78.536 615.594 78.376 616.106 78.376ZM622.278 78.376C622.576 78.376 622.854 78.408 623.11 78.472L622.838 79.912C622.582 79.848 622.336 79.816 622.102 79.816C621.579 79.816 621.158 80.008 620.838 80.392C620.518 80.776 620.267 81.3733 620.086 82.184V87H618.614V78.568H619.878L620.022 80.28C620.246 79.6507 620.55 79.176 620.934 78.856C621.318 78.536 621.766 78.376 622.278 78.376ZM630.669 82.536C630.669 82.7813 630.659 83.032 630.637 83.288H625.261C625.325 84.216 625.56 84.8987 625.965 85.336C626.371 85.7733 626.893 85.992 627.533 85.992C627.939 85.992 628.312 85.9333 628.653 85.816C628.995 85.6987 629.352 85.512 629.725 85.256L630.365 86.136C629.469 86.84 628.488 87.192 627.421 87.192C626.248 87.192 625.331 86.808 624.669 86.04C624.019 85.272 623.693 84.216 623.693 82.872C623.693 81.9973 623.832 81.224 624.109 80.552C624.397 79.8693 624.803 79.336 625.325 78.952C625.859 78.568 626.483 78.376 627.197 78.376C628.317 78.376 629.176 78.744 629.773 79.48C630.371 80.216 630.669 81.2347 630.669 82.536ZM629.213 82.104C629.213 81.272 629.048 80.6373 628.717 80.2C628.387 79.7627 627.891 79.544 627.229 79.544C626.024 79.544 625.368 80.4293 625.261 82.2H629.213V82.104ZM636.988 78.376C637.756 78.376 638.353 78.6053 638.78 79.064C639.217 79.5227 639.436 80.152 639.436 80.952V87H637.964V81.16C637.964 80.5627 637.852 80.1413 637.628 79.896C637.404 79.6507 637.073 79.528 636.636 79.528C636.188 79.528 635.793 79.656 635.452 79.912C635.111 80.168 634.791 80.536 634.492 81.016V87H633.02V78.568H634.284L634.412 79.816C634.711 79.368 635.079 79.016 635.516 78.76C635.964 78.504 636.455 78.376 636.988 78.376ZM646.651 86.616C646.096 87 645.467 87.192 644.763 87.192C644.048 87.192 643.488 86.9893 643.083 86.584C642.688 86.168 642.491 85.5707 642.491 84.792V79.704H641.019V78.568H642.491V76.664L643.963 76.488V78.568H645.963L645.803 79.704H643.963V84.728C643.963 85.1653 644.038 85.4853 644.187 85.688C644.347 85.88 644.608 85.976 644.971 85.976C645.302 85.976 645.675 85.864 646.091 85.64L646.651 86.616ZM654.011 75.976V85.672H658.539L658.363 87H652.491V75.976H654.011ZM663.141 78.376C664.325 78.376 665.242 78.7707 665.893 79.56C666.554 80.3493 666.885 81.4213 666.885 82.776C666.885 83.6507 666.736 84.424 666.437 85.096C666.138 85.7573 665.706 86.2747 665.141 86.648C664.576 87.0107 663.904 87.192 663.125 87.192C661.941 87.192 661.018 86.7973 660.357 86.008C659.696 85.2187 659.365 84.1467 659.365 82.792C659.365 81.9173 659.514 81.1493 659.813 80.488C660.112 79.816 660.544 79.2987 661.109 78.936C661.674 78.5627 662.352 78.376 663.141 78.376ZM663.141 79.56C661.68 79.56 660.949 80.6373 660.949 82.792C660.949 84.936 661.674 86.008 663.125 86.008C664.576 86.008 665.301 84.9307 665.301 82.776C665.301 80.632 664.581 79.56 663.141 79.56ZM672.389 78.376C672.89 78.376 673.349 78.4507 673.765 78.6C674.181 78.7387 674.581 78.968 674.965 79.288L674.261 80.216C673.962 80.0027 673.669 79.848 673.381 79.752C673.104 79.6453 672.794 79.592 672.453 79.592C671.77 79.592 671.237 79.864 670.853 80.408C670.48 80.952 670.293 81.7573 670.293 82.824C670.293 83.8907 670.48 84.68 670.853 85.192C671.226 85.6933 671.76 85.944 672.453 85.944C672.784 85.944 673.088 85.896 673.365 85.8C673.642 85.6933 673.952 85.528 674.293 85.304L674.965 86.264C674.197 86.8827 673.338 87.192 672.389 87.192C671.248 87.192 670.346 86.808 669.685 86.04C669.034 85.272 668.709 84.2107 668.709 82.856C668.709 81.96 668.858 81.176 669.157 80.504C669.456 79.832 669.877 79.3093 670.421 78.936C670.976 78.5627 671.632 78.376 672.389 78.376ZM682.481 85.032C682.481 85.3733 682.54 85.6293 682.657 85.8C682.775 85.96 682.951 86.0827 683.185 86.168L682.849 87.192C682.412 87.1387 682.06 87.016 681.793 86.824C681.527 86.632 681.329 86.3333 681.201 85.928C680.636 86.7707 679.799 87.192 678.689 87.192C677.857 87.192 677.201 86.9573 676.721 86.488C676.241 86.0187 676.001 85.4053 676.001 84.648C676.001 83.752 676.321 83.064 676.961 82.584C677.612 82.104 678.529 81.864 679.713 81.864H681.009V81.24C681.009 80.6427 680.865 80.216 680.577 79.96C680.289 79.704 679.847 79.576 679.249 79.576C678.631 79.576 677.873 79.7253 676.977 80.024L676.609 78.952C677.655 78.568 678.625 78.376 679.521 78.376C680.513 78.376 681.255 78.6213 681.745 79.112C682.236 79.592 682.481 80.28 682.481 81.176V85.032ZM679.025 86.088C679.868 86.088 680.529 85.6507 681.009 84.776V82.84H679.905C678.348 82.84 677.569 83.416 677.569 84.568C677.569 85.0693 677.692 85.448 677.937 85.704C678.183 85.96 678.545 86.088 679.025 86.088ZM689.76 86.616C689.206 87 688.576 87.192 687.872 87.192C687.158 87.192 686.598 86.9893 686.192 86.584C685.798 86.168 685.6 85.5707 685.6 84.792V79.704H684.128V78.568H685.6V76.664L687.072 76.488V78.568H689.072L688.912 79.704H687.072V84.728C687.072 85.1653 687.147 85.4853 687.296 85.688C687.456 85.88 687.718 85.976 688.08 85.976C688.411 85.976 688.784 85.864 689.2 85.64L689.76 86.616ZM692.758 78.568V87H691.286V78.568H692.758ZM692.006 74.52C692.315 74.52 692.566 74.616 692.758 74.808C692.95 75 693.046 75.24 693.046 75.528C693.046 75.816 692.95 76.056 692.758 76.248C692.566 76.4293 692.315 76.52 692.006 76.52C691.707 76.52 691.462 76.4293 691.27 76.248C691.078 76.056 690.982 75.816 690.982 75.528C690.982 75.24 691.078 75 691.27 74.808C691.462 74.616 691.707 74.52 692.006 74.52ZM698.969 78.376C700.153 78.376 701.071 78.7707 701.721 79.56C702.383 80.3493 702.713 81.4213 702.713 82.776C702.713 83.6507 702.564 84.424 702.265 85.096C701.967 85.7573 701.535 86.2747 700.969 86.648C700.404 87.0107 699.732 87.192 698.953 87.192C697.769 87.192 696.847 86.7973 696.185 86.008C695.524 85.2187 695.193 84.1467 695.193 82.792C695.193 81.9173 695.343 81.1493 695.641 80.488C695.94 79.816 696.372 79.2987 696.937 78.936C697.503 78.5627 698.18 78.376 698.969 78.376ZM698.969 79.56C697.508 79.56 696.777 80.6373 696.777 82.792C696.777 84.936 697.503 86.008 698.953 86.008C700.404 86.008 701.129 84.9307 701.129 82.776C701.129 80.632 700.409 79.56 698.969 79.56ZM709.113 78.376C709.881 78.376 710.478 78.6053 710.905 79.064C711.342 79.5227 711.561 80.152 711.561 80.952V87H710.089V81.16C710.089 80.5627 709.977 80.1413 709.753 79.896C709.529 79.6507 709.198 79.528 708.761 79.528C708.313 79.528 707.918 79.656 707.577 79.912C707.236 80.168 706.916 80.536 706.617 81.016V87H705.145V78.568H706.409L706.537 79.816C706.836 79.368 707.204 79.016 707.641 78.76C708.089 78.504 708.58 78.376 709.113 78.376Z" fill="white"/>
</svg>
