<svg width="1001" height="496" viewBox="0 0 1001 496" fill="none" xmlns="http://www.w3.org/2000/svg">
<g opacity="0.29827">
<path d="M1008.08 163.448L443.182 -356.858V-747.19L28.1096 -770C24.9043 -762.456 4.36709 -740.714 7.57176 -728.596C11.43 -714.102 30.8387 -718.735 36.4776 -709.409C43.0661 -698.42 31.7291 -653.749 28.3457 -640.86C21.8759 -616.445 7.09676 -596.665 2.82235 -572.25C-4.35982 -531.263 10.1824 -534.53 37.7242 -508.927C84.141 -465.742 46.9244 -420.952 58.6176 -370.223C68.1146 -328.878 109.605 -307.554 124.8 -266.211C136.553 -234.37 152.697 -226.233 177.746 -202.947C177.153 -217.084 164.51 -258.785 188.253 -255.102C211.817 -251.478 202.736 -216.669 207.247 -202.115C211.045 -189.997 237.933 -165.761 215.616 -154.593C208.196 -150.91 187.066 -165.582 178.577 -169.503C184.572 -150.791 180.774 -131.367 190.271 -113.487C201.608 -92.162 213.835 -100.359 228.853 -88.7754C244.344 -76.8355 242.683 -63.1137 235.797 -45.0554C228.615 -26.2247 221.196 -29.1352 232.592 -6.44342C240.843 9.95119 254.85 30.7421 266.9 43.2164C273.904 50.4634 281.502 52.1267 288.506 61.3932C294.323 69.1155 292.067 79.2142 299.012 86.1638C310.883 98.1037 331.006 98.282 340.384 113.904C350.831 131.309 338.96 144.437 369.706 142.833C371.309 177.643 377.897 209.185 377.541 243.994C394.695 250.825 422.414 242.687 440.399 239.063C458.266 263.18 481.355 246.429 501.774 259.558C510.678 265.26 508.837 279.517 514.239 284.506C525.339 294.723 533.529 288.308 547.301 291.872C557.51 294.486 565.404 301.97 575.138 304.703C584.338 307.257 599.475 301.258 606.301 309.396C614.492 319.138 600.78 336.958 613.127 344.799C623.395 351.333 638.115 335.77 648.088 338.027C659.721 340.7 693.079 371.174 701.271 381.212C710.59 392.677 719.969 414.062 725.25 428.793C733.501 451.841 732.373 463.127 749.408 479.998C760.27 490.75 749.942 491.522 767.63 494.67C779.204 496.749 794.518 488.374 806.212 487.067C830.549 484.394 855.122 489.027 879.102 484.453C901.421 480.176 922.729 473.166 945.64 469.899C965.465 467.048 1000.37 469.246 1017.94 459.801C1036.99 449.643 1038.71 426.654 1011.17 430.932C1008.97 416.26 1018.77 396.003 1007.85 385.847C1023.04 365.056 1028.56 350.384 1030.93 324.959C1032 313.792 1032.48 301.436 1038 292.05C1043.4 282.783 1058.59 277.259 1061.56 269.299C1066.13 256.943 1058.83 251.419 1053.25 244.528C1049.69 240.073 1039.54 242.212 1036.63 238.291C1031.23 231.103 1036.57 223.678 1033.6 216.431C1024.94 195.462 1014.61 187.205 1008.08 163.444C1008.26 167.424 1008.44 171.463 1008.2 175.384" stroke="white" stroke-width="2" stroke-linecap="round" stroke-linejoin="round"/>
</g>
<path d="M731.358 87C722.544 109.526 743.187 117.43 759.709 132.153C764.605 136.516 765.072 143.723 759.919 148.083C748.837 157.458 706.823 143.819 709.488 156.178C712.241 168.943 747.762 186.802 749.363 188.023C763.422 198.748 768 225.957 760.257 240.875C754.748 251.49 718.22 247.912 706.729 244.377C631.484 221.229 665.39 223.989 580.865 216.801C574.395 216.25 567.614 215.969 561.4 217.745C554.999 219.575 555.203 227.079 557.35 231.137C564.467 244.582 596.329 267.388 587.755 285.061C585.124 290.484 578.959 293.91 576.183 299.269C574.008 303.466 574.249 308.423 573.283 313" stroke="white" stroke-width="2"/>
<path fill-rule="evenodd" clip-rule="evenodd" d="M573.5 326C577.09 326 580 323.09 580 319.5C580 315.91 577.09 313 573.5 313C569.91 313 567 315.91 567 319.5C567 323.09 569.91 326 573.5 326Z" fill="#4AF6CD"/>
<path fill-rule="evenodd" clip-rule="evenodd" d="M661 363C662.657 363 664 361.657 664 360C664 358.343 662.657 357 661 357C659.343 357 658 358.343 658 360C658 361.657 659.343 363 661 363Z" fill="#4AF6CD"/>
<path fill-rule="evenodd" clip-rule="evenodd" d="M725 471C726.657 471 728 469.657 728 468C728 466.343 726.657 465 725 465C723.343 465 722 466.343 722 468C722 469.657 723.343 471 725 471Z" fill="#4AF6CD"/>
<path fill-rule="evenodd" clip-rule="evenodd" d="M365 228C366.657 228 368 226.657 368 225C368 223.343 366.657 222 365 222C363.343 222 362 223.343 362 225C362 226.657 363.343 228 365 228Z" fill="#4AF6CD"/>
<path fill-rule="evenodd" clip-rule="evenodd" d="M729.5 91C733.09 91 736 88.0899 736 84.5C736 80.9101 733.09 78 729.5 78C725.91 78 723 80.9101 723 84.5C723 88.0899 725.91 91 729.5 91Z" fill="#4AF6CD"/>
<path d="M367.445 319.784C368.181 319.784 368.81 319.891 369.333 320.104C369.856 320.307 370.362 320.627 370.853 321.064L370.021 321.992C369.605 321.661 369.194 321.421 368.789 321.272C368.394 321.112 367.968 321.032 367.509 321.032C366.933 321.032 366.458 321.165 366.085 321.432C365.712 321.699 365.525 322.088 365.525 322.6C365.525 322.92 365.589 323.192 365.717 323.416C365.845 323.629 366.08 323.827 366.421 324.008C366.773 324.189 367.28 324.381 367.941 324.584C368.634 324.797 369.21 325.027 369.669 325.272C370.128 325.517 370.496 325.859 370.773 326.296C371.061 326.723 371.205 327.267 371.205 327.928C371.205 328.568 371.045 329.133 370.725 329.624C370.416 330.115 369.962 330.499 369.365 330.776C368.778 331.053 368.08 331.192 367.269 331.192C365.744 331.192 364.496 330.717 363.525 329.768L364.357 328.84C364.805 329.203 365.258 329.48 365.717 329.672C366.176 329.853 366.688 329.944 367.253 329.944C367.936 329.944 368.501 329.779 368.949 329.448C369.397 329.107 369.621 328.616 369.621 327.976C369.621 327.613 369.552 327.315 369.413 327.08C369.274 326.835 369.034 326.616 368.693 326.424C368.362 326.232 367.877 326.04 367.237 325.848C366.106 325.507 365.28 325.096 364.757 324.616C364.234 324.136 363.973 323.485 363.973 322.664C363.973 322.109 364.117 321.613 364.405 321.176C364.704 320.739 365.114 320.397 365.637 320.152C366.17 319.907 366.773 319.784 367.445 319.784ZM376.532 322.376C377.716 322.376 378.633 322.771 379.284 323.56C379.945 324.349 380.276 325.421 380.276 326.776C380.276 327.651 380.126 328.424 379.828 329.096C379.529 329.757 379.097 330.275 378.532 330.648C377.966 331.011 377.294 331.192 376.516 331.192C375.332 331.192 374.409 330.797 373.748 330.008C373.086 329.219 372.756 328.147 372.756 326.792C372.756 325.917 372.905 325.149 373.204 324.488C373.502 323.816 373.934 323.299 374.5 322.936C375.065 322.563 375.742 322.376 376.532 322.376ZM376.532 323.56C375.07 323.56 374.34 324.637 374.34 326.792C374.34 328.936 375.065 330.008 376.516 330.008C377.966 330.008 378.692 328.931 378.692 326.776C378.692 324.632 377.972 323.56 376.532 323.56ZM388.98 331H387.716L387.604 329.688C387.284 330.211 386.916 330.595 386.5 330.84C386.084 331.075 385.577 331.192 384.98 331.192C384.244 331.192 383.668 330.968 383.252 330.52C382.836 330.072 382.628 329.437 382.628 328.616V322.568H384.1V328.456C384.1 329.032 384.201 329.443 384.404 329.688C384.606 329.923 384.937 330.04 385.396 330.04C386.217 330.04 386.921 329.555 387.508 328.584V322.568H388.98V331ZM396.276 330.616C395.721 331 395.092 331.192 394.388 331.192C393.673 331.192 393.113 330.989 392.708 330.584C392.313 330.168 392.116 329.571 392.116 328.792V323.704H390.644V322.568H392.116V320.664L393.588 320.488V322.568H395.588L395.428 323.704H393.588V328.728C393.588 329.165 393.663 329.485 393.812 329.688C393.972 329.88 394.233 329.976 394.596 329.976C394.927 329.976 395.3 329.864 395.716 329.64L396.276 330.616ZM401.769 322.376C402.537 322.376 403.135 322.605 403.561 323.064C403.999 323.523 404.217 324.152 404.217 324.952V331H402.745V325.16C402.745 324.563 402.628 324.141 402.393 323.896C402.169 323.651 401.839 323.528 401.401 323.528C400.964 323.528 400.575 323.656 400.233 323.912C399.892 324.168 399.572 324.531 399.273 325V331H397.801V319.192L399.273 319.032V323.736C399.935 322.829 400.767 322.376 401.769 322.376ZM414.211 319.784C414.947 319.784 415.576 319.891 416.099 320.104C416.621 320.307 417.128 320.627 417.619 321.064L416.787 321.992C416.371 321.661 415.96 321.421 415.555 321.272C415.16 321.112 414.733 321.032 414.275 321.032C413.699 321.032 413.224 321.165 412.851 321.432C412.477 321.699 412.291 322.088 412.291 322.6C412.291 322.92 412.355 323.192 412.483 323.416C412.611 323.629 412.845 323.827 413.187 324.008C413.539 324.189 414.045 324.381 414.707 324.584C415.4 324.797 415.976 325.027 416.435 325.272C416.893 325.517 417.261 325.859 417.539 326.296C417.827 326.723 417.971 327.267 417.971 327.928C417.971 328.568 417.811 329.133 417.491 329.624C417.181 330.115 416.728 330.499 416.131 330.776C415.544 331.053 414.845 331.192 414.035 331.192C412.509 331.192 411.261 330.717 410.291 329.768L411.123 328.84C411.571 329.203 412.024 329.48 412.483 329.672C412.941 329.853 413.453 329.944 414.019 329.944C414.701 329.944 415.267 329.779 415.715 329.448C416.163 329.107 416.387 328.616 416.387 327.976C416.387 327.613 416.317 327.315 416.179 327.08C416.04 326.835 415.8 326.616 415.459 326.424C415.128 326.232 414.643 326.04 414.003 325.848C412.872 325.507 412.045 325.096 411.523 324.616C411 324.136 410.739 323.485 410.739 322.664C410.739 322.109 410.883 321.613 411.171 321.176C411.469 320.739 411.88 320.397 412.403 320.152C412.936 319.907 413.539 319.784 414.211 319.784ZM424.097 322.376C424.865 322.376 425.463 322.605 425.889 323.064C426.327 323.523 426.545 324.152 426.545 324.952V331H425.073V325.16C425.073 324.563 424.956 324.141 424.721 323.896C424.497 323.651 424.167 323.528 423.729 323.528C423.292 323.528 422.903 323.656 422.561 323.912C422.22 324.168 421.9 324.531 421.601 325V331H420.129V319.192L421.601 319.032V323.736C422.263 322.829 423.095 322.376 424.097 322.376ZM432.672 322.376C433.856 322.376 434.774 322.771 435.424 323.56C436.086 324.349 436.416 325.421 436.416 326.776C436.416 327.651 436.267 328.424 435.968 329.096C435.67 329.757 435.238 330.275 434.672 330.648C434.107 331.011 433.435 331.192 432.656 331.192C431.472 331.192 430.55 330.797 429.888 330.008C429.227 329.219 428.896 328.147 428.896 326.792C428.896 325.917 429.046 325.149 429.344 324.488C429.643 323.816 430.075 323.299 430.64 322.936C431.206 322.563 431.883 322.376 432.672 322.376ZM432.672 323.56C431.211 323.56 430.48 324.637 430.48 326.792C430.48 328.936 431.206 330.008 432.656 330.008C434.107 330.008 434.832 328.931 434.832 326.776C434.832 324.632 434.112 323.56 432.672 323.56ZM442.512 322.376C442.811 322.376 443.088 322.408 443.344 322.472L443.072 323.912C442.816 323.848 442.571 323.816 442.336 323.816C441.813 323.816 441.392 324.008 441.072 324.392C440.752 324.776 440.501 325.373 440.32 326.184V331H438.848V322.568H440.112L440.256 324.28C440.48 323.651 440.784 323.176 441.168 322.856C441.552 322.536 442 322.376 442.512 322.376ZM450.904 326.536C450.904 326.781 450.893 327.032 450.872 327.288H445.496C445.56 328.216 445.794 328.899 446.2 329.336C446.605 329.773 447.128 329.992 447.768 329.992C448.173 329.992 448.546 329.933 448.888 329.816C449.229 329.699 449.586 329.512 449.96 329.256L450.6 330.136C449.704 330.84 448.722 331.192 447.656 331.192C446.482 331.192 445.565 330.808 444.904 330.04C444.253 329.272 443.928 328.216 443.928 326.872C443.928 325.997 444.066 325.224 444.344 324.552C444.632 323.869 445.037 323.336 445.56 322.952C446.093 322.568 446.717 322.376 447.432 322.376C448.552 322.376 449.41 322.744 450.008 323.48C450.605 324.216 450.904 325.235 450.904 326.536ZM449.448 326.104C449.448 325.272 449.282 324.637 448.952 324.2C448.621 323.763 448.125 323.544 447.464 323.544C446.258 323.544 445.602 324.429 445.496 326.2H449.448V326.104ZM459.441 318.184V332.568H459.089V318.184H459.441ZM471.133 319.784C471.869 319.784 472.498 319.891 473.021 320.104C473.543 320.307 474.05 320.627 474.541 321.064L473.709 321.992C473.293 321.661 472.882 321.421 472.477 321.272C472.082 321.112 471.655 321.032 471.197 321.032C470.621 321.032 470.146 321.165 469.773 321.432C469.399 321.699 469.213 322.088 469.213 322.6C469.213 322.92 469.277 323.192 469.405 323.416C469.533 323.629 469.767 323.827 470.109 324.008C470.461 324.189 470.967 324.381 471.629 324.584C472.322 324.797 472.898 325.027 473.357 325.272C473.815 325.517 474.183 325.859 474.461 326.296C474.749 326.723 474.892 327.267 474.892 327.928C474.892 328.568 474.733 329.133 474.413 329.624C474.103 330.115 473.65 330.499 473.053 330.776C472.466 331.053 471.767 331.192 470.957 331.192C469.431 331.192 468.183 330.717 467.213 329.768L468.045 328.84C468.493 329.203 468.946 329.48 469.405 329.672C469.863 329.853 470.375 329.944 470.941 329.944C471.623 329.944 472.189 329.779 472.637 329.448C473.085 329.107 473.309 328.616 473.309 327.976C473.309 327.613 473.239 327.315 473.101 327.08C472.962 326.835 472.722 326.616 472.381 326.424C472.05 326.232 471.565 326.04 470.924 325.848C469.794 325.507 468.967 325.096 468.445 324.616C467.922 324.136 467.661 323.485 467.661 322.664C467.661 322.109 467.805 321.613 468.093 321.176C468.391 320.739 468.802 320.397 469.325 320.152C469.858 319.907 470.461 319.784 471.133 319.784ZM478.523 322.568V331H477.051V322.568H478.523ZM477.771 318.52C478.081 318.52 478.331 318.616 478.523 318.808C478.715 319 478.811 319.24 478.811 319.528C478.811 319.816 478.715 320.056 478.523 320.248C478.331 320.429 478.081 320.52 477.771 320.52C477.473 320.52 477.227 320.429 477.035 320.248C476.843 320.056 476.747 319.816 476.747 319.528C476.747 319.24 476.843 319 477.035 318.808C477.227 318.616 477.473 318.52 477.771 318.52ZM487.247 329.032C487.247 329.373 487.306 329.629 487.423 329.8C487.54 329.96 487.716 330.083 487.951 330.168L487.615 331.192C487.178 331.139 486.826 331.016 486.559 330.824C486.292 330.632 486.095 330.333 485.967 329.928C485.402 330.771 484.564 331.192 483.455 331.192C482.623 331.192 481.967 330.957 481.487 330.488C481.007 330.019 480.767 329.405 480.767 328.648C480.767 327.752 481.087 327.064 481.727 326.584C482.378 326.104 483.295 325.864 484.479 325.864H485.775V325.24C485.775 324.643 485.631 324.216 485.343 323.96C485.055 323.704 484.612 323.576 484.015 323.576C483.396 323.576 482.639 323.725 481.743 324.024L481.375 322.952C482.42 322.568 483.391 322.376 484.287 322.376C485.279 322.376 486.02 322.621 486.511 323.112C487.002 323.592 487.247 324.28 487.247 325.176V329.032ZM483.791 330.088C484.634 330.088 485.295 329.651 485.775 328.776V326.84H484.671C483.114 326.84 482.335 327.416 482.335 328.568C482.335 329.069 482.458 329.448 482.703 329.704C482.948 329.96 483.311 330.088 483.791 330.088ZM493.934 322.376C494.233 322.376 494.51 322.408 494.766 322.472L494.494 323.912C494.238 323.848 493.993 323.816 493.758 323.816C493.235 323.816 492.814 324.008 492.494 324.392C492.174 324.776 491.923 325.373 491.742 326.184V331H490.27V322.568H491.534L491.678 324.28C491.902 323.651 492.206 323.176 492.59 322.856C492.974 322.536 493.422 322.376 493.934 322.376ZM503.008 322.952C502.688 323.059 502.336 323.128 501.952 323.16C501.568 323.192 501.098 323.208 500.544 323.208C501.536 323.656 502.032 324.365 502.032 325.336C502.032 326.179 501.744 326.867 501.168 327.4C500.592 327.933 499.808 328.2 498.816 328.2C498.432 328.2 498.074 328.147 497.744 328.04C497.616 328.125 497.514 328.243 497.44 328.392C497.365 328.531 497.328 328.675 497.328 328.824C497.328 329.283 497.696 329.512 498.432 329.512H499.776C500.341 329.512 500.842 329.613 501.28 329.816C501.717 330.019 502.053 330.296 502.288 330.648C502.533 331 502.656 331.4 502.656 331.848C502.656 332.669 502.32 333.299 501.648 333.736C500.976 334.184 499.994 334.408 498.704 334.408C497.797 334.408 497.077 334.312 496.544 334.12C496.021 333.939 495.648 333.661 495.424 333.288C495.2 332.915 495.088 332.435 495.088 331.848H496.416C496.416 332.189 496.48 332.456 496.608 332.648C496.736 332.851 496.965 333 497.296 333.096C497.626 333.203 498.096 333.256 498.704 333.256C499.589 333.256 500.218 333.144 500.592 332.92C500.976 332.707 501.168 332.381 501.168 331.944C501.168 331.549 501.018 331.251 500.72 331.048C500.421 330.845 500.005 330.744 499.472 330.744H498.144C497.429 330.744 496.885 330.595 496.512 330.296C496.149 329.987 495.968 329.603 495.968 329.144C495.968 328.867 496.048 328.6 496.208 328.344C496.368 328.088 496.597 327.859 496.896 327.656C496.405 327.4 496.042 327.085 495.808 326.712C495.584 326.328 495.472 325.864 495.472 325.32C495.472 324.755 495.61 324.248 495.888 323.8C496.176 323.352 496.565 323.005 497.056 322.76C497.557 322.504 498.112 322.376 498.72 322.376C499.381 322.387 499.936 322.365 500.384 322.312C500.832 322.248 501.2 322.168 501.488 322.072C501.786 321.965 502.149 321.816 502.576 321.624L503.008 322.952ZM498.72 323.432C498.165 323.432 497.733 323.608 497.424 323.96C497.125 324.301 496.976 324.755 496.976 325.32C496.976 325.896 497.13 326.36 497.44 326.712C497.749 327.053 498.186 327.224 498.752 327.224C499.328 327.224 499.765 327.059 500.064 326.728C500.373 326.387 500.528 325.912 500.528 325.304C500.528 324.056 499.925 323.432 498.72 323.432ZM509.903 329.032C509.903 329.373 509.962 329.629 510.079 329.8C510.196 329.96 510.372 330.083 510.607 330.168L510.271 331.192C509.834 331.139 509.482 331.016 509.215 330.824C508.948 330.632 508.751 330.333 508.623 329.928C508.058 330.771 507.22 331.192 506.111 331.192C505.279 331.192 504.623 330.957 504.143 330.488C503.663 330.019 503.423 329.405 503.423 328.648C503.423 327.752 503.743 327.064 504.383 326.584C505.034 326.104 505.951 325.864 507.135 325.864H508.431V325.24C508.431 324.643 508.287 324.216 507.999 323.96C507.711 323.704 507.268 323.576 506.671 323.576C506.052 323.576 505.295 323.725 504.399 324.024L504.031 322.952C505.076 322.568 506.047 322.376 506.943 322.376C507.935 322.376 508.676 322.621 509.167 323.112C509.658 323.592 509.903 324.28 509.903 325.176V329.032ZM506.447 330.088C507.29 330.088 507.951 329.651 508.431 328.776V326.84H507.327C505.77 326.84 504.991 327.416 504.991 328.568C504.991 329.069 505.114 329.448 505.359 329.704C505.604 329.96 505.967 330.088 506.447 330.088ZM516.094 322.376C517.278 322.376 518.196 322.771 518.846 323.56C519.508 324.349 519.838 325.421 519.838 326.776C519.838 327.651 519.689 328.424 519.39 329.096C519.092 329.757 518.66 330.275 518.094 330.648C517.529 331.011 516.857 331.192 516.078 331.192C514.894 331.192 513.972 330.797 513.31 330.008C512.649 329.219 512.318 328.147 512.318 326.792C512.318 325.917 512.468 325.149 512.766 324.488C513.065 323.816 513.497 323.299 514.062 322.936C514.628 322.563 515.305 322.376 516.094 322.376ZM516.094 323.56C514.633 323.56 513.902 324.637 513.902 326.792C513.902 328.936 514.628 330.008 516.078 330.008C517.529 330.008 518.254 328.931 518.254 326.776C518.254 324.632 517.534 323.56 516.094 323.56ZM522.654 328.968C522.974 328.968 523.241 329.075 523.454 329.288C523.667 329.501 523.774 329.763 523.774 330.072C523.774 330.403 523.678 330.781 523.486 331.208L522.414 333.656H521.358L521.998 331C521.859 330.893 521.747 330.76 521.662 330.6C521.587 330.44 521.55 330.264 521.55 330.072C521.55 329.763 521.657 329.501 521.87 329.288C522.083 329.075 522.345 328.968 522.654 328.968ZM533.324 319.976C534.689 319.976 535.745 320.264 536.492 320.84C537.239 321.405 537.612 322.253 537.612 323.384C537.612 324.589 537.223 325.485 536.444 326.072C535.665 326.659 534.631 326.952 533.34 326.952H531.948V331H530.428V319.976H533.324ZM533.276 325.752C534.161 325.752 534.833 325.581 535.292 325.24C535.761 324.899 535.996 324.285 535.996 323.4C535.996 322.611 535.761 322.04 535.292 321.688C534.833 321.336 534.172 321.16 533.308 321.16H531.948V325.752H533.276ZM545.885 331V325.832H541.245V331H539.725V319.976H541.245V324.584H545.885V319.976H547.405V331H545.885Z" fill="white"/>
<path d="M598.378 75.784C599.039 75.784 599.594 75.8693 600.042 76.04C600.501 76.2107 600.965 76.488 601.434 76.872L600.602 77.848C599.93 77.304 599.221 77.032 598.474 77.032C597.557 77.032 596.815 77.384 596.25 78.088C595.695 78.792 595.418 79.9227 595.418 81.48C595.418 82.9947 595.695 84.1147 596.25 84.84C596.805 85.5547 597.541 85.912 598.458 85.912C598.927 85.912 599.338 85.832 599.69 85.672C600.042 85.512 600.415 85.288 600.81 85L601.562 85.96C601.221 86.312 600.783 86.6053 600.25 86.84C599.717 87.0747 599.103 87.192 598.41 87.192C597.514 87.192 596.714 86.9733 596.01 86.536C595.317 86.088 594.773 85.4373 594.378 84.584C593.994 83.72 593.802 82.6853 593.802 81.48C593.802 80.2747 594.005 79.2453 594.41 78.392C594.815 77.528 595.365 76.8773 596.058 76.44C596.751 76.0027 597.525 75.784 598.378 75.784ZM609.401 87H608.137L608.025 85.688C607.705 86.2107 607.337 86.5947 606.921 86.84C606.505 87.0747 605.999 87.192 605.401 87.192C604.665 87.192 604.089 86.968 603.673 86.52C603.257 86.072 603.049 85.4373 603.049 84.616V78.568H604.521V84.456C604.521 85.032 604.623 85.4427 604.825 85.688C605.028 85.9227 605.359 86.04 605.817 86.04C606.639 86.04 607.343 85.5547 607.929 84.584V78.568H609.401V87ZM616.106 78.376C616.405 78.376 616.682 78.408 616.938 78.472L616.666 79.912C616.41 79.848 616.165 79.816 615.93 79.816C615.407 79.816 614.986 80.008 614.666 80.392C614.346 80.776 614.095 81.3733 613.914 82.184V87H612.442V78.568H613.706L613.85 80.28C614.074 79.6507 614.378 79.176 614.762 78.856C615.146 78.536 615.594 78.376 616.106 78.376ZM622.278 78.376C622.576 78.376 622.854 78.408 623.11 78.472L622.838 79.912C622.582 79.848 622.336 79.816 622.102 79.816C621.579 79.816 621.158 80.008 620.838 80.392C620.518 80.776 620.267 81.3733 620.086 82.184V87H618.614V78.568H619.878L620.022 80.28C620.246 79.6507 620.55 79.176 620.934 78.856C621.318 78.536 621.766 78.376 622.278 78.376ZM630.669 82.536C630.669 82.7813 630.659 83.032 630.637 83.288H625.261C625.325 84.216 625.56 84.8987 625.965 85.336C626.371 85.7733 626.893 85.992 627.533 85.992C627.939 85.992 628.312 85.9333 628.653 85.816C628.995 85.6987 629.352 85.512 629.725 85.256L630.365 86.136C629.469 86.84 628.488 87.192 627.421 87.192C626.248 87.192 625.331 86.808 624.669 86.04C624.019 85.272 623.693 84.216 623.693 82.872C623.693 81.9973 623.832 81.224 624.109 80.552C624.397 79.8693 624.803 79.336 625.325 78.952C625.859 78.568 626.483 78.376 627.197 78.376C628.317 78.376 629.176 78.744 629.773 79.48C630.371 80.216 630.669 81.2347 630.669 82.536ZM629.213 82.104C629.213 81.272 629.048 80.6373 628.717 80.2C628.387 79.7627 627.891 79.544 627.229 79.544C626.024 79.544 625.368 80.4293 625.261 82.2H629.213V82.104ZM636.988 78.376C637.756 78.376 638.353 78.6053 638.78 79.064C639.217 79.5227 639.436 80.152 639.436 80.952V87H637.964V81.16C637.964 80.5627 637.852 80.1413 637.628 79.896C637.404 79.6507 637.073 79.528 636.636 79.528C636.188 79.528 635.793 79.656 635.452 79.912C635.111 80.168 634.791 80.536 634.492 81.016V87H633.02V78.568H634.284L634.412 79.816C634.711 79.368 635.079 79.016 635.516 78.76C635.964 78.504 636.455 78.376 636.988 78.376ZM646.651 86.616C646.096 87 645.467 87.192 644.763 87.192C644.048 87.192 643.488 86.9893 643.083 86.584C642.688 86.168 642.491 85.5707 642.491 84.792V79.704H641.019V78.568H642.491V76.664L643.963 76.488V78.568H645.963L645.803 79.704H643.963V84.728C643.963 85.1653 644.038 85.4853 644.187 85.688C644.347 85.88 644.608 85.976 644.971 85.976C645.302 85.976 645.675 85.864 646.091 85.64L646.651 86.616ZM654.011 75.976V85.672H658.539L658.363 87H652.491V75.976H654.011ZM663.141 78.376C664.325 78.376 665.242 78.7707 665.893 79.56C666.554 80.3493 666.885 81.4213 666.885 82.776C666.885 83.6507 666.736 84.424 666.437 85.096C666.138 85.7573 665.706 86.2747 665.141 86.648C664.576 87.0107 663.904 87.192 663.125 87.192C661.941 87.192 661.018 86.7973 660.357 86.008C659.696 85.2187 659.365 84.1467 659.365 82.792C659.365 81.9173 659.514 81.1493 659.813 80.488C660.112 79.816 660.544 79.2987 661.109 78.936C661.674 78.5627 662.352 78.376 663.141 78.376ZM663.141 79.56C661.68 79.56 660.949 80.6373 660.949 82.792C660.949 84.936 661.674 86.008 663.125 86.008C664.576 86.008 665.301 84.9307 665.301 82.776C665.301 80.632 664.581 79.56 663.141 79.56ZM672.389 78.376C672.89 78.376 673.349 78.4507 673.765 78.6C674.181 78.7387 674.581 78.968 674.965 79.288L674.261 80.216C673.962 80.0027 673.669 79.848 673.381 79.752C673.104 79.6453 672.794 79.592 672.453 79.592C671.77 79.592 671.237 79.864 670.853 80.408C670.48 80.952 670.293 81.7573 670.293 82.824C670.293 83.8907 670.48 84.68 670.853 85.192C671.226 85.6933 671.76 85.944 672.453 85.944C672.784 85.944 673.088 85.896 673.365 85.8C673.642 85.6933 673.952 85.528 674.293 85.304L674.965 86.264C674.197 86.8827 673.338 87.192 672.389 87.192C671.248 87.192 670.346 86.808 669.685 86.04C669.034 85.272 668.709 84.2107 668.709 82.856C668.709 81.96 668.858 81.176 669.157 80.504C669.456 79.832 669.877 79.3093 670.421 78.936C670.976 78.5627 671.632 78.376 672.389 78.376ZM682.481 85.032C682.481 85.3733 682.54 85.6293 682.657 85.8C682.775 85.96 682.951 86.0827 683.185 86.168L682.849 87.192C682.412 87.1387 682.06 87.016 681.793 86.824C681.527 86.632 681.329 86.3333 681.201 85.928C680.636 86.7707 679.799 87.192 678.689 87.192C677.857 87.192 677.201 86.9573 676.721 86.488C676.241 86.0187 676.001 85.4053 676.001 84.648C676.001 83.752 676.321 83.064 676.961 82.584C677.612 82.104 678.529 81.864 679.713 81.864H681.009V81.24C681.009 80.6427 680.865 80.216 680.577 79.96C680.289 79.704 679.847 79.576 679.249 79.576C678.631 79.576 677.873 79.7253 676.977 80.024L676.609 78.952C677.655 78.568 678.625 78.376 679.521 78.376C680.513 78.376 681.255 78.6213 681.745 79.112C682.236 79.592 682.481 80.28 682.481 81.176V85.032ZM679.025 86.088C679.868 86.088 680.529 85.6507 681.009 84.776V82.84H679.905C678.348 82.84 677.569 83.416 677.569 84.568C677.569 85.0693 677.692 85.448 677.937 85.704C678.183 85.96 678.545 86.088 679.025 86.088ZM689.76 86.616C689.206 87 688.576 87.192 687.872 87.192C687.158 87.192 686.598 86.9893 686.192 86.584C685.798 86.168 685.6 85.5707 685.6 84.792V79.704H684.128V78.568H685.6V76.664L687.072 76.488V78.568H689.072L688.912 79.704H687.072V84.728C687.072 85.1653 687.147 85.4853 687.296 85.688C687.456 85.88 687.718 85.976 688.08 85.976C688.411 85.976 688.784 85.864 689.2 85.64L689.76 86.616ZM692.758 78.568V87H691.286V78.568H692.758ZM692.006 74.52C692.315 74.52 692.566 74.616 692.758 74.808C692.95 75 693.046 75.24 693.046 75.528C693.046 75.816 692.95 76.056 692.758 76.248C692.566 76.4293 692.315 76.52 692.006 76.52C691.707 76.52 691.462 76.4293 691.27 76.248C691.078 76.056 690.982 75.816 690.982 75.528C690.982 75.24 691.078 75 691.27 74.808C691.462 74.616 691.707 74.52 692.006 74.52ZM698.969 78.376C700.153 78.376 701.071 78.7707 701.721 79.56C702.383 80.3493 702.713 81.4213 702.713 82.776C702.713 83.6507 702.564 84.424 702.265 85.096C701.967 85.7573 701.535 86.2747 700.969 86.648C700.404 87.0107 699.732 87.192 698.953 87.192C697.769 87.192 696.847 86.7973 696.185 86.008C695.524 85.2187 695.193 84.1467 695.193 82.792C695.193 81.9173 695.343 81.1493 695.641 80.488C695.94 79.816 696.372 79.2987 696.937 78.936C697.503 78.5627 698.18 78.376 698.969 78.376ZM698.969 79.56C697.508 79.56 696.777 80.6373 696.777 82.792C696.777 84.936 697.503 86.008 698.953 86.008C700.404 86.008 701.129 84.9307 701.129 82.776C701.129 80.632 700.409 79.56 698.969 79.56ZM709.113 78.376C709.881 78.376 710.478 78.6053 710.905 79.064C711.342 79.5227 711.561 80.152 711.561 80.952V87H710.089V81.16C710.089 80.5627 709.977 80.1413 709.753 79.896C709.529 79.6507 709.198 79.528 708.761 79.528C708.313 79.528 707.918 79.656 707.577 79.912C707.236 80.168 706.916 80.536 706.617 81.016V87H705.145V78.568H706.409L706.537 79.816C706.836 79.368 707.204 79.016 707.641 78.76C708.089 78.504 708.58 78.376 709.113 78.376Z" fill="white"/>
</svg>
