<svg width="1001" height="496" viewBox="0 0 1001 496" fill="none" xmlns="http://www.w3.org/2000/svg">
<g opacity="0.29827">
<path d="M1008.08 163.448L443.182 -356.858V-747.19L28.1096 -770C24.9043 -762.456 4.36709 -740.714 7.57176 -728.596C11.43 -714.102 30.8387 -718.735 36.4776 -709.409C43.0661 -698.42 31.7291 -653.749 28.3457 -640.86C21.8759 -616.445 7.09676 -596.665 2.82235 -572.25C-4.35982 -531.263 10.1824 -534.53 37.7242 -508.927C84.141 -465.742 46.9244 -420.952 58.6176 -370.223C68.1146 -328.878 109.605 -307.554 124.8 -266.211C136.553 -234.37 152.697 -226.233 177.746 -202.947C177.153 -217.084 164.51 -258.785 188.253 -255.102C211.817 -251.478 202.736 -216.669 207.247 -202.115C211.045 -189.997 237.933 -165.761 215.616 -154.593C208.196 -150.91 187.066 -165.582 178.577 -169.503C184.572 -150.791 180.774 -131.367 190.271 -113.487C201.608 -92.162 213.835 -100.359 228.853 -88.7754C244.344 -76.8355 242.683 -63.1137 235.797 -45.0554C228.615 -26.2247 221.196 -29.1352 232.592 -6.44342C240.843 9.95119 254.85 30.7421 266.9 43.2164C273.904 50.4634 281.502 52.1267 288.506 61.3932C294.323 69.1155 292.067 79.2142 299.012 86.1638C310.883 98.1037 331.006 98.282 340.384 113.904C350.831 131.309 338.96 144.437 369.706 142.833C371.309 177.643 377.897 209.185 377.541 243.994C394.695 250.825 422.414 242.687 440.399 239.063C458.266 263.18 481.355 246.429 501.774 259.558C510.678 265.26 508.837 279.517 514.239 284.506C525.339 294.723 533.529 288.308 547.301 291.872C557.51 294.486 565.404 301.97 575.138 304.703C584.338 307.257 599.475 301.258 606.301 309.396C614.492 319.138 600.78 336.958 613.127 344.799C623.395 351.333 638.115 335.77 648.088 338.027C659.721 340.7 693.079 371.174 701.271 381.212C710.59 392.677 719.969 414.062 725.25 428.793C733.501 451.841 732.373 463.127 749.408 479.998C760.27 490.75 749.942 491.522 767.63 494.67C779.204 496.749 794.518 488.374 806.212 487.067C830.549 484.394 855.122 489.027 879.102 484.453C901.421 480.176 922.729 473.166 945.64 469.899C965.465 467.048 1000.37 469.246 1017.94 459.801C1036.99 449.643 1038.71 426.654 1011.17 430.932C1008.97 416.26 1018.77 396.003 1007.85 385.847C1023.04 365.056 1028.56 350.384 1030.93 324.959C1032 313.792 1032.48 301.436 1038 292.05C1043.4 282.783 1058.59 277.259 1061.56 269.299C1066.13 256.943 1058.83 251.419 1053.25 244.528C1049.69 240.073 1039.54 242.212 1036.63 238.291C1031.23 231.103 1036.57 223.678 1033.6 216.431C1024.94 195.462 1014.61 187.205 1008.08 163.444C1008.26 167.424 1008.44 171.463 1008.2 175.384" stroke="white" stroke-width="2" stroke-linecap="round" stroke-linejoin="round"/>
</g>
<path d="M723.084 87C703.126 100.755 749.871 105.581 787.283 114.571C798.369 117.235 799.426 121.636 787.758 124.299C762.665 130.023 667.528 121.695 673.562 129.242C679.795 137.036 760.23 147.941 763.856 148.687C795.69 155.236 806.059 171.85 788.525 180.959C776.049 187.441 693.334 185.256 667.315 183.097C496.927 168.963 573.705 170.648 382.306 166.259C367.654 165.923 352.3 165.751 338.228 166.835C323.734 167.953 324.195 172.535 329.058 175.013C345.174 183.222 417.321 197.148 397.906 207.94C391.949 211.251 377.988 213.343 371.702 216.615C366.778 219.179 367.324 222.205 365.135 225" stroke="white" stroke-width="2"/>
<path fill-rule="evenodd" clip-rule="evenodd" d="M570 319C571.657 319 573 317.657 573 316C573 314.343 571.657 313 570 313C568.343 313 567 314.343 567 316C567 317.657 568.343 319 570 319Z" fill="#4AF6CD"/>
<path fill-rule="evenodd" clip-rule="evenodd" d="M661 363C662.657 363 664 361.657 664 360C664 358.343 662.657 357 661 357C659.343 357 658 358.343 658 360C658 361.657 659.343 363 661 363Z" fill="#4AF6CD"/>
<path fill-rule="evenodd" clip-rule="evenodd" d="M725 471C726.657 471 728 469.657 728 468C728 466.343 726.657 465 725 465C723.343 465 722 466.343 722 468C722 469.657 723.343 471 725 471Z" fill="#4AF6CD"/>
<path fill-rule="evenodd" clip-rule="evenodd" d="M368.5 235C372.09 235 375 232.09 375 228.5C375 224.91 372.09 222 368.5 222C364.91 222 362 224.91 362 228.5C362 232.09 364.91 235 368.5 235Z" fill="#4AF6CD"/>
<path fill-rule="evenodd" clip-rule="evenodd" d="M729.5 91C733.09 91 736 88.0899 736 84.5C736 80.9101 733.09 78 729.5 78C725.91 78 723 80.9101 723 84.5C723 88.0899 725.91 91 729.5 91Z" fill="#4AF6CD"/>
<path d="M164.656 234H162.624L158.144 224.64C158.208 225.376 158.256 226.059 158.288 226.688C158.331 227.307 158.352 228.059 158.352 228.944V234H156.928V222.976H158.912L163.44 232.352C163.408 232.075 163.365 231.589 163.312 230.896C163.259 230.203 163.232 229.568 163.232 228.992V222.976H164.656V234ZM170.938 225.376C172.122 225.376 173.039 225.771 173.69 226.56C174.351 227.349 174.682 228.421 174.682 229.776C174.682 230.651 174.533 231.424 174.234 232.096C173.935 232.757 173.503 233.275 172.938 233.648C172.373 234.011 171.701 234.192 170.922 234.192C169.738 234.192 168.815 233.797 168.154 233.008C167.493 232.219 167.162 231.147 167.162 229.792C167.162 228.917 167.311 228.149 167.61 227.488C167.909 226.816 168.341 226.299 168.906 225.936C169.471 225.563 170.149 225.376 170.938 225.376ZM170.938 226.56C169.477 226.56 168.746 227.637 168.746 229.792C168.746 231.936 169.471 233.008 170.922 233.008C172.373 233.008 173.098 231.931 173.098 229.776C173.098 227.632 172.378 226.56 170.938 226.56ZM180.778 225.376C181.076 225.376 181.354 225.408 181.61 225.472L181.338 226.912C181.082 226.848 180.836 226.816 180.602 226.816C180.079 226.816 179.658 227.008 179.338 227.392C179.018 227.776 178.767 228.373 178.586 229.184V234H177.114V225.568H178.378L178.522 227.28C178.746 226.651 179.05 226.176 179.434 225.856C179.818 225.536 180.266 225.376 180.778 225.376ZM187.542 233.616C186.987 234 186.358 234.192 185.654 234.192C184.939 234.192 184.379 233.989 183.974 233.584C183.579 233.168 183.382 232.571 183.382 231.792V226.704H181.91V225.568H183.382V223.664L184.854 223.488V225.568H186.854L186.694 226.704H184.854V231.728C184.854 232.165 184.928 232.485 185.078 232.688C185.238 232.88 185.499 232.976 185.862 232.976C186.192 232.976 186.566 232.864 186.982 232.64L187.542 233.616ZM193.035 225.376C193.803 225.376 194.4 225.605 194.827 226.064C195.264 226.523 195.483 227.152 195.483 227.952V234H194.011V228.16C194.011 227.563 193.894 227.141 193.659 226.896C193.435 226.651 193.104 226.528 192.667 226.528C192.23 226.528 191.84 226.656 191.499 226.912C191.158 227.168 190.838 227.531 190.539 228V234H189.067V222.192L190.539 222.032V226.736C191.2 225.829 192.032 225.376 193.035 225.376ZM205.476 222.784C206.212 222.784 206.842 222.891 207.364 223.104C207.887 223.307 208.394 223.627 208.884 224.064L208.052 224.992C207.636 224.661 207.226 224.421 206.82 224.272C206.426 224.112 205.999 224.032 205.54 224.032C204.964 224.032 204.49 224.165 204.116 224.432C203.743 224.699 203.556 225.088 203.556 225.6C203.556 225.92 203.62 226.192 203.748 226.416C203.876 226.629 204.111 226.827 204.452 227.008C204.804 227.189 205.311 227.381 205.972 227.584C206.666 227.797 207.242 228.027 207.7 228.272C208.159 228.517 208.527 228.859 208.804 229.296C209.092 229.723 209.236 230.267 209.236 230.928C209.236 231.568 209.076 232.133 208.756 232.624C208.447 233.115 207.994 233.499 207.396 233.776C206.81 234.053 206.111 234.192 205.3 234.192C203.775 234.192 202.527 233.717 201.556 232.768L202.388 231.84C202.836 232.203 203.29 232.48 203.748 232.672C204.207 232.853 204.719 232.944 205.284 232.944C205.967 232.944 206.532 232.779 206.98 232.448C207.428 232.107 207.652 231.616 207.652 230.976C207.652 230.613 207.583 230.315 207.444 230.08C207.306 229.835 207.066 229.616 206.724 229.424C206.394 229.232 205.908 229.04 205.268 228.848C204.138 228.507 203.311 228.096 202.788 227.616C202.266 227.136 202.004 226.485 202.004 225.664C202.004 225.109 202.148 224.613 202.436 224.176C202.735 223.739 203.146 223.397 203.668 223.152C204.202 222.907 204.804 222.784 205.476 222.784ZM215.363 225.376C216.131 225.376 216.728 225.605 217.155 226.064C217.592 226.523 217.811 227.152 217.811 227.952V234H216.339V228.16C216.339 227.563 216.222 227.141 215.987 226.896C215.763 226.651 215.432 226.528 214.995 226.528C214.558 226.528 214.168 226.656 213.827 226.912C213.486 227.168 213.166 227.531 212.867 228V234H211.395V222.192L212.867 222.032V226.736C213.528 225.829 214.36 225.376 215.363 225.376ZM223.938 225.376C225.122 225.376 226.039 225.771 226.69 226.56C227.351 227.349 227.682 228.421 227.682 229.776C227.682 230.651 227.533 231.424 227.234 232.096C226.935 232.757 226.503 233.275 225.938 233.648C225.373 234.011 224.701 234.192 223.922 234.192C222.738 234.192 221.815 233.797 221.154 233.008C220.493 232.219 220.162 231.147 220.162 229.792C220.162 228.917 220.311 228.149 220.61 227.488C220.909 226.816 221.341 226.299 221.906 225.936C222.471 225.563 223.149 225.376 223.938 225.376ZM223.938 226.56C222.477 226.56 221.746 227.637 221.746 229.792C221.746 231.936 222.471 233.008 223.922 233.008C225.373 233.008 226.098 231.931 226.098 229.776C226.098 227.632 225.378 226.56 223.938 226.56ZM233.778 225.376C234.076 225.376 234.354 225.408 234.61 225.472L234.338 226.912C234.082 226.848 233.836 226.816 233.602 226.816C233.079 226.816 232.658 227.008 232.338 227.392C232.018 227.776 231.767 228.373 231.586 229.184V234H230.114V225.568H231.378L231.522 227.28C231.746 226.651 232.05 226.176 232.434 225.856C232.818 225.536 233.266 225.376 233.778 225.376ZM242.169 229.536C242.169 229.781 242.159 230.032 242.137 230.288H236.761C236.825 231.216 237.06 231.899 237.465 232.336C237.871 232.773 238.393 232.992 239.033 232.992C239.439 232.992 239.812 232.933 240.153 232.816C240.495 232.699 240.852 232.512 241.225 232.256L241.865 233.136C240.969 233.84 239.988 234.192 238.921 234.192C237.748 234.192 236.831 233.808 236.169 233.04C235.519 232.272 235.193 231.216 235.193 229.872C235.193 228.997 235.332 228.224 235.609 227.552C235.897 226.869 236.303 226.336 236.825 225.952C237.359 225.568 237.983 225.376 238.697 225.376C239.817 225.376 240.676 225.744 241.273 226.48C241.871 227.216 242.169 228.235 242.169 229.536ZM240.713 229.104C240.713 228.272 240.548 227.637 240.217 227.2C239.887 226.763 239.391 226.544 238.729 226.544C237.524 226.544 236.868 227.429 236.761 229.2H240.713V229.104ZM250.706 221.184V235.568H250.354V221.184H250.706ZM265.838 234V228.832H261.198V234H259.678V222.976H261.198V227.584H265.838V222.976H267.358V234H265.838ZM273.641 225.376C274.825 225.376 275.742 225.771 276.393 226.56C277.054 227.349 277.385 228.421 277.385 229.776C277.385 230.651 277.236 231.424 276.937 232.096C276.638 232.757 276.206 233.275 275.641 233.648C275.076 234.011 274.404 234.192 273.625 234.192C272.441 234.192 271.518 233.797 270.857 233.008C270.196 232.219 269.865 231.147 269.865 229.792C269.865 228.917 270.014 228.149 270.313 227.488C270.612 226.816 271.044 226.299 271.609 225.936C272.174 225.563 272.852 225.376 273.641 225.376ZM273.641 226.56C272.18 226.56 271.449 227.637 271.449 229.792C271.449 231.936 272.174 233.008 273.625 233.008C275.076 233.008 275.801 231.931 275.801 229.776C275.801 227.632 275.081 226.56 273.641 226.56ZM282.105 225.376C282.681 225.376 283.198 225.456 283.657 225.616C284.116 225.776 284.553 226.016 284.969 226.336L284.345 227.264C283.961 227.019 283.593 226.837 283.241 226.72C282.9 226.603 282.537 226.544 282.153 226.544C281.673 226.544 281.294 226.645 281.017 226.848C280.74 227.04 280.601 227.307 280.601 227.648C280.601 227.989 280.729 228.256 280.985 228.448C281.252 228.64 281.726 228.827 282.409 229.008C283.348 229.243 284.046 229.563 284.505 229.968C284.974 230.373 285.209 230.928 285.209 231.632C285.209 232.464 284.884 233.099 284.233 233.536C283.593 233.973 282.809 234.192 281.881 234.192C280.601 234.192 279.54 233.824 278.697 233.088L279.481 232.192C280.196 232.736 280.985 233.008 281.849 233.008C282.404 233.008 282.841 232.896 283.161 232.672C283.492 232.437 283.657 232.123 283.657 231.728C283.657 231.44 283.598 231.211 283.481 231.04C283.364 230.859 283.161 230.704 282.873 230.576C282.585 230.437 282.164 230.293 281.609 230.144C280.713 229.909 280.062 229.595 279.657 229.2C279.262 228.805 279.065 228.304 279.065 227.696C279.065 227.259 279.193 226.864 279.449 226.512C279.716 226.149 280.078 225.872 280.537 225.68C281.006 225.477 281.529 225.376 282.105 225.376ZM289.417 225.376C289.993 225.376 290.511 225.456 290.969 225.616C291.428 225.776 291.865 226.016 292.281 226.336L291.657 227.264C291.273 227.019 290.905 226.837 290.553 226.72C290.212 226.603 289.849 226.544 289.465 226.544C288.985 226.544 288.607 226.645 288.329 226.848C288.052 227.04 287.913 227.307 287.913 227.648C287.913 227.989 288.041 228.256 288.297 228.448C288.564 228.64 289.039 228.827 289.721 229.008C290.66 229.243 291.359 229.563 291.817 229.968C292.287 230.373 292.521 230.928 292.521 231.632C292.521 232.464 292.196 233.099 291.545 233.536C290.905 233.973 290.121 234.192 289.193 234.192C287.913 234.192 286.852 233.824 286.009 233.088L286.793 232.192C287.508 232.736 288.297 233.008 289.161 233.008C289.716 233.008 290.153 232.896 290.473 232.672C290.804 232.437 290.969 232.123 290.969 231.728C290.969 231.44 290.911 231.211 290.793 231.04C290.676 230.859 290.473 230.704 290.185 230.576C289.897 230.437 289.476 230.293 288.921 230.144C288.025 229.909 287.375 229.595 286.969 229.2C286.575 228.805 286.377 228.304 286.377 227.696C286.377 227.259 286.505 226.864 286.761 226.512C287.028 226.149 287.391 225.872 287.849 225.68C288.319 225.477 288.841 225.376 289.417 225.376ZM300.966 229.536C300.966 229.781 300.955 230.032 300.934 230.288H295.558C295.622 231.216 295.857 231.899 296.262 232.336C296.667 232.773 297.19 232.992 297.83 232.992C298.235 232.992 298.609 232.933 298.95 232.816C299.291 232.699 299.649 232.512 300.022 232.256L300.662 233.136C299.766 233.84 298.785 234.192 297.718 234.192C296.545 234.192 295.627 233.808 294.966 233.04C294.315 232.272 293.99 231.216 293.99 229.872C293.99 228.997 294.129 228.224 294.406 227.552C294.694 226.869 295.099 226.336 295.622 225.952C296.155 225.568 296.779 225.376 297.494 225.376C298.614 225.376 299.473 225.744 300.07 226.48C300.667 227.216 300.966 228.235 300.966 229.536ZM299.51 229.104C299.51 228.272 299.345 227.637 299.014 227.2C298.683 226.763 298.187 226.544 297.526 226.544C296.321 226.544 295.665 227.429 295.558 229.2H299.51V229.104ZM310.117 225.952C309.797 226.059 309.445 226.128 309.061 226.16C308.677 226.192 308.208 226.208 307.653 226.208C308.645 226.656 309.141 227.365 309.141 228.336C309.141 229.179 308.853 229.867 308.277 230.4C307.701 230.933 306.917 231.2 305.925 231.2C305.541 231.2 305.184 231.147 304.853 231.04C304.725 231.125 304.624 231.243 304.549 231.392C304.474 231.531 304.437 231.675 304.437 231.824C304.437 232.283 304.805 232.512 305.541 232.512H306.885C307.45 232.512 307.952 232.613 308.389 232.816C308.826 233.019 309.162 233.296 309.397 233.648C309.642 234 309.765 234.4 309.765 234.848C309.765 235.669 309.429 236.299 308.757 236.736C308.085 237.184 307.104 237.408 305.813 237.408C304.906 237.408 304.186 237.312 303.653 237.12C303.13 236.939 302.757 236.661 302.533 236.288C302.309 235.915 302.197 235.435 302.197 234.848H303.525C303.525 235.189 303.589 235.456 303.717 235.648C303.845 235.851 304.074 236 304.405 236.096C304.736 236.203 305.205 236.256 305.813 236.256C306.698 236.256 307.328 236.144 307.701 235.92C308.085 235.707 308.277 235.381 308.277 234.944C308.277 234.549 308.128 234.251 307.829 234.048C307.53 233.845 307.114 233.744 306.581 233.744H305.253C304.538 233.744 303.994 233.595 303.621 233.296C303.258 232.987 303.077 232.603 303.077 232.144C303.077 231.867 303.157 231.6 303.317 231.344C303.477 231.088 303.706 230.859 304.005 230.656C303.514 230.4 303.152 230.085 302.917 229.712C302.693 229.328 302.581 228.864 302.581 228.32C302.581 227.755 302.72 227.248 302.997 226.8C303.285 226.352 303.674 226.005 304.165 225.76C304.666 225.504 305.221 225.376 305.829 225.376C306.49 225.387 307.045 225.365 307.493 225.312C307.941 225.248 308.309 225.168 308.597 225.072C308.896 224.965 309.258 224.816 309.685 224.624L310.117 225.952ZM305.829 226.432C305.274 226.432 304.842 226.608 304.533 226.96C304.234 227.301 304.085 227.755 304.085 228.32C304.085 228.896 304.24 229.36 304.549 229.712C304.858 230.053 305.296 230.224 305.861 230.224C306.437 230.224 306.874 230.059 307.173 229.728C307.482 229.387 307.637 228.912 307.637 228.304C307.637 227.056 307.034 226.432 305.829 226.432ZM314.547 225.376C315.731 225.376 316.649 225.771 317.299 226.56C317.961 227.349 318.291 228.421 318.291 229.776C318.291 230.651 318.142 231.424 317.843 232.096C317.545 232.757 317.113 233.275 316.547 233.648C315.982 234.011 315.31 234.192 314.531 234.192C313.347 234.192 312.425 233.797 311.763 233.008C311.102 232.219 310.771 231.147 310.771 229.792C310.771 228.917 310.921 228.149 311.219 227.488C311.518 226.816 311.95 226.299 312.515 225.936C313.081 225.563 313.758 225.376 314.547 225.376ZM314.547 226.56C313.086 226.56 312.355 227.637 312.355 229.792C312.355 231.936 313.081 233.008 314.531 233.008C315.982 233.008 316.707 231.931 316.707 229.776C316.707 227.632 315.987 226.56 314.547 226.56ZM324.387 225.376C324.686 225.376 324.963 225.408 325.219 225.472L324.947 226.912C324.691 226.848 324.446 226.816 324.211 226.816C323.688 226.816 323.267 227.008 322.947 227.392C322.627 227.776 322.376 228.373 322.195 229.184V234H320.723V225.568H321.987L322.131 227.28C322.355 226.651 322.659 226.176 323.043 225.856C323.427 225.536 323.875 225.376 324.387 225.376ZM327.279 231.968C327.599 231.968 327.866 232.075 328.079 232.288C328.292 232.501 328.399 232.763 328.399 233.072C328.399 233.403 328.303 233.781 328.111 234.208L327.039 236.656H325.983L326.623 234C326.484 233.893 326.372 233.76 326.287 233.6C326.212 233.44 326.175 233.264 326.175 233.072C326.175 232.763 326.282 232.501 326.495 232.288C326.708 232.075 326.97 231.968 327.279 231.968ZM335.053 234V222.976H340.909L340.733 224.192H336.573V227.952H340.173V229.152H336.573V234H335.053ZM346.145 229.328H344.433V234H342.913V222.976H345.809C347.185 222.976 348.225 223.237 348.929 223.76C349.643 224.283 350.001 225.061 350.001 226.096C350.001 226.864 349.803 227.488 349.409 227.968C349.014 228.448 348.417 228.811 347.617 229.056L350.593 234H348.785L346.145 229.328ZM345.969 228.16C346.769 228.16 347.371 228 347.777 227.68C348.182 227.349 348.385 226.821 348.385 226.096C348.385 225.413 348.177 224.923 347.761 224.624C347.355 224.315 346.699 224.16 345.793 224.16H344.433V228.16H345.969Z" fill="white"/>
<path d="M598.378 75.784C599.039 75.784 599.594 75.8693 600.042 76.04C600.501 76.2107 600.965 76.488 601.434 76.872L600.602 77.848C599.93 77.304 599.221 77.032 598.474 77.032C597.557 77.032 596.815 77.384 596.25 78.088C595.695 78.792 595.418 79.9227 595.418 81.48C595.418 82.9947 595.695 84.1147 596.25 84.84C596.805 85.5547 597.541 85.912 598.458 85.912C598.927 85.912 599.338 85.832 599.69 85.672C600.042 85.512 600.415 85.288 600.81 85L601.562 85.96C601.221 86.312 600.783 86.6053 600.25 86.84C599.717 87.0747 599.103 87.192 598.41 87.192C597.514 87.192 596.714 86.9733 596.01 86.536C595.317 86.088 594.773 85.4373 594.378 84.584C593.994 83.72 593.802 82.6853 593.802 81.48C593.802 80.2747 594.005 79.2453 594.41 78.392C594.815 77.528 595.365 76.8773 596.058 76.44C596.751 76.0027 597.525 75.784 598.378 75.784ZM609.401 87H608.137L608.025 85.688C607.705 86.2107 607.337 86.5947 606.921 86.84C606.505 87.0747 605.999 87.192 605.401 87.192C604.665 87.192 604.089 86.968 603.673 86.52C603.257 86.072 603.049 85.4373 603.049 84.616V78.568H604.521V84.456C604.521 85.032 604.623 85.4427 604.825 85.688C605.028 85.9227 605.359 86.04 605.817 86.04C606.639 86.04 607.343 85.5547 607.929 84.584V78.568H609.401V87ZM616.106 78.376C616.405 78.376 616.682 78.408 616.938 78.472L616.666 79.912C616.41 79.848 616.165 79.816 615.93 79.816C615.407 79.816 614.986 80.008 614.666 80.392C614.346 80.776 614.095 81.3733 613.914 82.184V87H612.442V78.568H613.706L613.85 80.28C614.074 79.6507 614.378 79.176 614.762 78.856C615.146 78.536 615.594 78.376 616.106 78.376ZM622.278 78.376C622.576 78.376 622.854 78.408 623.11 78.472L622.838 79.912C622.582 79.848 622.336 79.816 622.102 79.816C621.579 79.816 621.158 80.008 620.838 80.392C620.518 80.776 620.267 81.3733 620.086 82.184V87H618.614V78.568H619.878L620.022 80.28C620.246 79.6507 620.55 79.176 620.934 78.856C621.318 78.536 621.766 78.376 622.278 78.376ZM630.669 82.536C630.669 82.7813 630.659 83.032 630.637 83.288H625.261C625.325 84.216 625.56 84.8987 625.965 85.336C626.371 85.7733 626.893 85.992 627.533 85.992C627.939 85.992 628.312 85.9333 628.653 85.816C628.995 85.6987 629.352 85.512 629.725 85.256L630.365 86.136C629.469 86.84 628.488 87.192 627.421 87.192C626.248 87.192 625.331 86.808 624.669 86.04C624.019 85.272 623.693 84.216 623.693 82.872C623.693 81.9973 623.832 81.224 624.109 80.552C624.397 79.8693 624.803 79.336 625.325 78.952C625.859 78.568 626.483 78.376 627.197 78.376C628.317 78.376 629.176 78.744 629.773 79.48C630.371 80.216 630.669 81.2347 630.669 82.536ZM629.213 82.104C629.213 81.272 629.048 80.6373 628.717 80.2C628.387 79.7627 627.891 79.544 627.229 79.544C626.024 79.544 625.368 80.4293 625.261 82.2H629.213V82.104ZM636.988 78.376C637.756 78.376 638.353 78.6053 638.78 79.064C639.217 79.5227 639.436 80.152 639.436 80.952V87H637.964V81.16C637.964 80.5627 637.852 80.1413 637.628 79.896C637.404 79.6507 637.073 79.528 636.636 79.528C636.188 79.528 635.793 79.656 635.452 79.912C635.111 80.168 634.791 80.536 634.492 81.016V87H633.02V78.568H634.284L634.412 79.816C634.711 79.368 635.079 79.016 635.516 78.76C635.964 78.504 636.455 78.376 636.988 78.376ZM646.651 86.616C646.096 87 645.467 87.192 644.763 87.192C644.048 87.192 643.488 86.9893 643.083 86.584C642.688 86.168 642.491 85.5707 642.491 84.792V79.704H641.019V78.568H642.491V76.664L643.963 76.488V78.568H645.963L645.803 79.704H643.963V84.728C643.963 85.1653 644.038 85.4853 644.187 85.688C644.347 85.88 644.608 85.976 644.971 85.976C645.302 85.976 645.675 85.864 646.091 85.64L646.651 86.616ZM654.011 75.976V85.672H658.539L658.363 87H652.491V75.976H654.011ZM663.141 78.376C664.325 78.376 665.242 78.7707 665.893 79.56C666.554 80.3493 666.885 81.4213 666.885 82.776C666.885 83.6507 666.736 84.424 666.437 85.096C666.138 85.7573 665.706 86.2747 665.141 86.648C664.576 87.0107 663.904 87.192 663.125 87.192C661.941 87.192 661.018 86.7973 660.357 86.008C659.696 85.2187 659.365 84.1467 659.365 82.792C659.365 81.9173 659.514 81.1493 659.813 80.488C660.112 79.816 660.544 79.2987 661.109 78.936C661.674 78.5627 662.352 78.376 663.141 78.376ZM663.141 79.56C661.68 79.56 660.949 80.6373 660.949 82.792C660.949 84.936 661.674 86.008 663.125 86.008C664.576 86.008 665.301 84.9307 665.301 82.776C665.301 80.632 664.581 79.56 663.141 79.56ZM672.389 78.376C672.89 78.376 673.349 78.4507 673.765 78.6C674.181 78.7387 674.581 78.968 674.965 79.288L674.261 80.216C673.962 80.0027 673.669 79.848 673.381 79.752C673.104 79.6453 672.794 79.592 672.453 79.592C671.77 79.592 671.237 79.864 670.853 80.408C670.48 80.952 670.293 81.7573 670.293 82.824C670.293 83.8907 670.48 84.68 670.853 85.192C671.226 85.6933 671.76 85.944 672.453 85.944C672.784 85.944 673.088 85.896 673.365 85.8C673.642 85.6933 673.952 85.528 674.293 85.304L674.965 86.264C674.197 86.8827 673.338 87.192 672.389 87.192C671.248 87.192 670.346 86.808 669.685 86.04C669.034 85.272 668.709 84.2107 668.709 82.856C668.709 81.96 668.858 81.176 669.157 80.504C669.456 79.832 669.877 79.3093 670.421 78.936C670.976 78.5627 671.632 78.376 672.389 78.376ZM682.481 85.032C682.481 85.3733 682.54 85.6293 682.657 85.8C682.775 85.96 682.951 86.0827 683.185 86.168L682.849 87.192C682.412 87.1387 682.06 87.016 681.793 86.824C681.527 86.632 681.329 86.3333 681.201 85.928C680.636 86.7707 679.799 87.192 678.689 87.192C677.857 87.192 677.201 86.9573 676.721 86.488C676.241 86.0187 676.001 85.4053 676.001 84.648C676.001 83.752 676.321 83.064 676.961 82.584C677.612 82.104 678.529 81.864 679.713 81.864H681.009V81.24C681.009 80.6427 680.865 80.216 680.577 79.96C680.289 79.704 679.847 79.576 679.249 79.576C678.631 79.576 677.873 79.7253 676.977 80.024L676.609 78.952C677.655 78.568 678.625 78.376 679.521 78.376C680.513 78.376 681.255 78.6213 681.745 79.112C682.236 79.592 682.481 80.28 682.481 81.176V85.032ZM679.025 86.088C679.868 86.088 680.529 85.6507 681.009 84.776V82.84H679.905C678.348 82.84 677.569 83.416 677.569 84.568C677.569 85.0693 677.692 85.448 677.937 85.704C678.183 85.96 678.545 86.088 679.025 86.088ZM689.76 86.616C689.206 87 688.576 87.192 687.872 87.192C687.158 87.192 686.598 86.9893 686.192 86.584C685.798 86.168 685.6 85.5707 685.6 84.792V79.704H684.128V78.568H685.6V76.664L687.072 76.488V78.568H689.072L688.912 79.704H687.072V84.728C687.072 85.1653 687.147 85.4853 687.296 85.688C687.456 85.88 687.718 85.976 688.08 85.976C688.411 85.976 688.784 85.864 689.2 85.64L689.76 86.616ZM692.758 78.568V87H691.286V78.568H692.758ZM692.006 74.52C692.315 74.52 692.566 74.616 692.758 74.808C692.95 75 693.046 75.24 693.046 75.528C693.046 75.816 692.95 76.056 692.758 76.248C692.566 76.4293 692.315 76.52 692.006 76.52C691.707 76.52 691.462 76.4293 691.27 76.248C691.078 76.056 690.982 75.816 690.982 75.528C690.982 75.24 691.078 75 691.27 74.808C691.462 74.616 691.707 74.52 692.006 74.52ZM698.969 78.376C700.153 78.376 701.071 78.7707 701.721 79.56C702.383 80.3493 702.713 81.4213 702.713 82.776C702.713 83.6507 702.564 84.424 702.265 85.096C701.967 85.7573 701.535 86.2747 700.969 86.648C700.404 87.0107 699.732 87.192 698.953 87.192C697.769 87.192 696.847 86.7973 696.185 86.008C695.524 85.2187 695.193 84.1467 695.193 82.792C695.193 81.9173 695.343 81.1493 695.641 80.488C695.94 79.816 696.372 79.2987 696.937 78.936C697.503 78.5627 698.18 78.376 698.969 78.376ZM698.969 79.56C697.508 79.56 696.777 80.6373 696.777 82.792C696.777 84.936 697.503 86.008 698.953 86.008C700.404 86.008 701.129 84.9307 701.129 82.776C701.129 80.632 700.409 79.56 698.969 79.56ZM709.113 78.376C709.881 78.376 710.478 78.6053 710.905 79.064C711.342 79.5227 711.561 80.152 711.561 80.952V87H710.089V81.16C710.089 80.5627 709.977 80.1413 709.753 79.896C709.529 79.6507 709.198 79.528 708.761 79.528C708.313 79.528 707.918 79.656 707.577 79.912C707.236 80.168 706.916 80.536 706.617 81.016V87H705.145V78.568H706.409L706.537 79.816C706.836 79.368 707.204 79.016 707.641 78.76C708.089 78.504 708.58 78.376 709.113 78.376Z" fill="white"/>
</svg>
